<svg version="1.1" viewBox="0.0 0.0 908.8503937007874 555.3595800524935" fill="none" stroke="none" stroke-linecap="square" stroke-miterlimit="10" xmlns:xlink="http://www.w3.org/1999/xlink" xmlns="http://www.w3.org/2000/svg"><clipPath id="p.0"><path d="m0 0l908.8504 0l0 555.35956l-908.8504 0l0 -555.35956z" clip-rule="nonzero"/></clipPath><g clip-path="url(#p.0)"><path fill="#000000" fill-opacity="0.0" d="m0 0l908.8504 0l0 555.35956l-908.8504 0z" fill-rule="evenodd"/><path fill="#00ffff" d="m21.625984 535.4593l275.62076 -262.2362l596.6942 0l-275.62073 262.2362z" fill-rule="evenodd"/><path fill="#cfe2f3" fill-opacity="0.648" d="m169.41864 72.61155l591.1496 0l0 328.8819l-591.1496 0z" fill-rule="evenodd"/><path stroke="#999999" stroke-width="2.0" stroke-linejoin="round" stroke-linecap="butt" stroke-dasharray="16.0,6.0" d="m169.41864 72.61155l591.1496 0l0 328.8819l-591.1496 0z" fill-rule="evenodd"/><path fill="#000000" fill-opacity="0.0" d="m169.71785 74.94226l295.27557 326.55118" fill-rule="evenodd"/><path stroke="#ff9900" stroke-width="4.0" stroke-linejoin="round" stroke-linecap="butt" d="m169.71785 74.94226l279.17896 308.74954" fill-rule="evenodd"/><path fill="#ff9900" stroke="#ff9900" stroke-width="4.0" stroke-linecap="butt" d="m443.9962 388.12305l17.075287 9.03302l-7.274109 -17.895477z" fill-rule="evenodd"/><path fill="#000000" fill-opacity="0.0" d="m464.99344 401.49344l295.2756 -326.55118" fill-rule="evenodd"/><path stroke="#ff9900" stroke-width="4.0" stroke-linejoin="round" stroke-linecap="butt" d="m464.99344 401.49344l279.179 -308.74957" fill-rule="evenodd"/><path fill="#ff9900" stroke="#ff9900" stroke-width="4.0" stroke-linecap="butt" d="m749.07294 97.1751l7.274109 -17.895477l-17.075256 9.03302z" fill-rule="evenodd"/><path fill="#000000" fill-opacity="0.0" d="m241.29527 11.761155l432.97638 0l0 60.850395l-432.97638 0z" fill-rule="evenodd"/><path fill="#000000" d="m341.2366 51.199905l0.09375 2.453125q0 0.96875 0.046875 1.375q0.0625 0.40625 0.15625 0.5625q0.109375 0.171875 0.328125 0.28125q0.21875 0.125 1.390625 0.375l0 1.953125l-7.6875 0l0 -1.921875q0.984375 -0.28125 1.21875 -0.390625q0.234375 -0.109375 0.328125 -0.28125q0.109375 -0.171875 0.15625 -0.625q0.0625 -0.453125 0.0625 -1.328125l0 -13.40625q0 -1.109375 -0.03125 -1.53125q-0.03125 -0.421875 -0.09375 -0.625q-0.0625 -0.21875 -0.15625 -0.3125q-0.078125 -0.109375 -0.28125 -0.203125q-0.203125 -0.09375 -1.359375 -0.328125l0 -1.984375l4.3125 -0.171875l1.671875 0l-0.59375 2.984375l-0.203125 -0.203125q0.65625 -0.984375 1.25 -1.46875q0.609375 -0.484375 1.28125 -0.8125q0.671875 -0.328125 1.296875 -0.46875q0.625 -0.140625 1.328125 -0.140625q2.921875 0 4.453125 2.15625q1.546875 2.15625 1.546875 6.078125q0 2.71875 -0.859375 4.640625q-0.84375 1.90625 -2.515625 2.890625q-1.65625 0.984375 -3.890625 0.984375q-1.21875 0 -2.234375 -0.21875q-1.0 -0.203125 -1.015625 -0.3125zm0.09375 -6.0q0 1.421875 0.15625 2.125q0.15625 0.6875 0.515625 1.078125q0.375 0.375 0.890625 0.578125q0.53125 0.203125 1.46875 0.203125q1.515625 0 2.328125 -1.328125q0.8125 -1.34375 0.8125 -4.21875q0 -5.46875 -2.921875 -5.46875q-0.734375 0 -1.25 0.21875q-0.515625 0.21875 -1.0625 0.75q-0.53125 0.53125 -0.734375 0.984375q-0.203125 0.4375 -0.203125 0.953125l0 4.125zm17.734375 1.71875q0 1.265625 0.078125 1.640625q0.09375 0.375 0.296875 0.53125q0.21875 0.15625 1.375 0.453125l0 1.9375l-7.515625 0l0 -1.921875q1.15625 -0.3125 1.328125 -0.4375q0.1875 -0.125 0.265625 -0.296875q0.078125 -0.1875 0.125 -0.640625q0.046875 -0.453125 0.046875 -1.265625l0 -13.078125q0 -1.484375 -0.03125 -2.03125q-0.015625 -0.5625 -0.09375 -0.875q-0.078125 -0.3125 -0.171875 -0.421875q-0.078125 -0.125 -0.28125 -0.21875q-0.1875 -0.09375 -1.4375 -0.3125l0 -1.984375l4.40625 -0.1875l1.609375 0l0 19.109375zm12.5625 1.90625l0.21875 0.1875q-1.09375 1.453125 -2.40625 2.09375q-1.3125 0.625 -2.8125 0.625q-1.34375 0 -2.40625 -0.53125q-1.0625 -0.546875 -1.640625 -1.546875q-0.578125 -1.0 -0.578125 -2.265625q0 -2.671875 2.484375 -4.046875q2.5 -1.375 6.546875 -1.546875l0 -0.390625q0 -1.515625 -0.265625 -2.296875q-0.25 -0.78125 -0.75 -1.09375q-0.484375 -0.328125 -1.421875 -0.328125q-0.96875 0 -1.546875 0.5q-0.578125 0.5 -1.046875 2.0625l-3.1875 0l0 -3.078125q1.890625 -0.984375 2.921875 -1.359375q1.046875 -0.390625 2.109375 -0.609375q1.0625 -0.234375 2.15625 -0.234375q1.703125 0 2.8125 0.578125q1.109375 0.578125 1.65625 1.765625q0.546875 1.1875 0.546875 3.375l0 5.4375q0 1.140625 0.015625 1.59375q0.015625 0.4375 0.078125 0.765625q0.0625 0.3125 0.140625 0.4375q0.078125 0.125 0.265625 0.234375q0.203125 0.109375 1.296875 0.40625l0 1.921875l-5.609375 0l0.421875 -2.65625zm-0.59375 -4.46875q-2.359375 0.03125 -3.6875 0.71875q-1.328125 0.6875 -1.328125 1.921875q0 0.6875 0.234375 1.03125q0.25 0.34375 0.640625 0.484375q0.390625 0.140625 1.03125 0.140625q0.875 0 1.59375 -0.421875q0.734375 -0.4375 1.125 -1.078125q0.390625 -0.65625 0.390625 -1.25l0 -1.546875zm23.390625 7.125l-7.46875 0l0 -1.90625q1.015625 -0.3125 1.1875 -0.40625q0.171875 -0.09375 0.265625 -0.21875q0.09375 -0.125 0.171875 -0.546875q0.078125 -0.421875 0.078125 -1.421875l0 -4.09375q0 -1.078125 -0.0625 -1.921875q-0.0625 -0.84375 -0.1875 -1.328125q-0.125 -0.5 -0.28125 -0.71875q-0.140625 -0.234375 -0.34375 -0.390625q-0.203125 -0.171875 -0.484375 -0.265625q-0.265625 -0.09375 -0.765625 -0.09375q-0.46875 0 -0.90625 0.203125q-0.4375 0.1875 -1.015625 0.703125q-0.5625 0.515625 -0.796875 0.96875q-0.234375 0.453125 -0.234375 1.046875l0 5.828125q0 1.265625 0.078125 1.640625q0.09375 0.375 0.296875 0.53125q0.21875 0.15625 1.375 0.453125l0 1.9375l-7.4375 0l0 -1.90625q1.015625 -0.3125 1.171875 -0.390625q0.15625 -0.09375 0.25 -0.21875q0.109375 -0.140625 0.1875 -0.546875q0.078125 -0.421875 0.078125 -1.453125l0 -6.8125q0 -0.984375 -0.03125 -1.515625q-0.015625 -0.53125 -0.125 -0.734375q-0.109375 -0.203125 -0.359375 -0.3125q-0.234375 -0.125 -1.390625 -0.328125l0 -2.0l4.296875 -0.171875l1.671875 0l-0.5625 2.984375l-0.203125 -0.15625q0.84375 -1.234375 1.609375 -1.765625q0.765625 -0.546875 1.578125 -0.859375q0.828125 -0.3125 1.765625 -0.3125q0.9375 0 1.703125 0.234375q0.78125 0.21875 1.390625 0.703125q0.609375 0.484375 0.984375 1.203125q0.390625 0.703125 0.5625 1.625q0.1875 0.921875 0.1875 2.28125l0 5.890625q0 1.03125 0.046875 1.4375q0.0625 0.390625 0.140625 0.53125q0.078125 0.140625 0.265625 0.25q0.1875 0.109375 1.3125 0.421875l0 1.921875zm15.375 -3.3125q-1.46875 1.546875 -2.375 2.1875q-0.90625 0.640625 -2.0 1.015625q-1.09375 0.359375 -2.40625 0.359375q-3.515625 0 -5.34375 -2.140625q-1.8125 -2.140625 -1.8125 -6.140625q0 -2.46875 0.90625 -4.40625q0.90625 -1.9375 2.609375 -3.0q1.71875 -1.078125 3.921875 -1.078125q1.71875 0 2.96875 0.5625q1.25 0.5625 2.0 1.546875q0.75 0.984375 1.140625 2.40625q0.40625 1.421875 0.46875 4.296875l-10.234375 -0.375l0.375 0q0 1.734375 0.359375 2.84375q0.375 1.109375 1.140625 1.703125q0.78125 0.578125 2.078125 0.578125q1.140625 0 2.03125 -0.421875q0.90625 -0.421875 2.3125 -1.90625l1.859375 1.96875zm-4.21875 -7.0q-0.0625 -0.921875 -0.359375 -1.859375q-0.28125 -0.9375 -0.78125 -1.359375q-0.484375 -0.4375 -1.296875 -0.4375q-1.28125 0 -2.09375 1.078125q-0.796875 1.078125 -0.90625 2.578125l5.4375 0zm20.28125 10.5625q-3.546875 0 -5.4375 -2.109375q-1.890625 -2.125 -1.890625 -6.125q0 -2.734375 0.96875 -4.671875q0.984375 -1.9375 2.703125 -2.890625q1.734375 -0.96875 3.90625 -0.96875q3.640625 0 5.53125 2.15625q1.90625 2.140625 1.90625 6.03125q0 2.75 -0.9375 4.6875q-0.9375 1.9375 -2.6875 2.921875q-1.734375 0.96875 -4.0625 0.96875zm-3.0625 -8.5625q0 3.03125 0.875 4.53125q0.890625 1.484375 2.421875 1.484375q0.84375 0 1.421875 -0.40625q0.59375 -0.40625 0.984375 -1.140625q0.40625 -0.75 0.59375 -1.796875q0.1875 -1.0625 0.1875 -2.234375q0 -2.1875 -0.46875 -3.5625q-0.453125 -1.375 -1.171875 -1.953125q-0.703125 -0.578125 -1.59375 -0.578125q-1.53125 0 -2.390625 1.40625q-0.859375 1.40625 -0.859375 4.25zm21.9375 -5.046875l-3.734375 0l0 8.796875q0 0.984375 0.078125 1.421875q0.09375 0.421875 0.1875 0.578125q0.109375 0.140625 0.3125 0.25q0.21875 0.109375 1.359375 0.359375l0 1.953125l-7.703125 0l0 -1.921875q1.09375 -0.296875 1.28125 -0.40625q0.1875 -0.109375 0.265625 -0.25q0.09375 -0.140625 0.15625 -0.546875q0.0625 -0.40625 0.0625 -1.4375l0 -8.796875l-1.890625 0l0 -2.015625q1.109375 -0.171875 1.234375 -0.203125q0.140625 -0.046875 0.21875 -0.09375q0.078125 -0.046875 0.140625 -0.140625q0.0625 -0.09375 0.140625 -0.40625q0.078125 -0.328125 0.140625 -1.0q0.15625 -1.8125 0.6875 -2.984375q0.53125 -1.1875 1.546875 -2.03125q1.03125 -0.84375 2.171875 -1.171875q1.15625 -0.34375 2.65625 -0.34375q1.296875 0 2.75 0.296875l0 4.015625l-2.6875 0q-0.390625 -1.21875 -0.640625 -1.453125q-0.234375 -0.234375 -0.6875 -0.234375q-0.390625 0 -0.625 0.09375q-0.21875 0.09375 -0.421875 0.296875q-0.203125 0.203125 -0.375 0.609375q-0.171875 0.390625 -0.265625 1.078125q-0.09375 0.671875 -0.09375 1.8125l0 0.984375l3.734375 0l0 2.890625zm13.171875 -9.015625l0 4.34375l-4.1875 0l0 -4.34375l4.1875 0zm-5.78125 20.46875q1.015625 -0.3125 1.171875 -0.390625q0.15625 -0.09375 0.25 -0.21875q0.109375 -0.140625 0.1875 -0.546875q0.078125 -0.421875 0.078125 -1.453125l0 -6.8125q0 -0.984375 -0.03125 -1.515625q-0.015625 -0.53125 -0.125 -0.734375q-0.109375 -0.203125 -0.359375 -0.3125q-0.234375 -0.125 -1.390625 -0.328125l0 -2.0l4.28125 -0.171875l1.625 0l0 11.828125q0 1.265625 0.078125 1.640625q0.09375 0.375 0.296875 0.53125q0.21875 0.15625 1.375 0.453125l0 1.9375l-7.4375 0l0 -1.90625zm25.421875 1.90625l-7.46875 0l0 -1.90625q1.015625 -0.3125 1.1875 -0.40625q0.171875 -0.09375 0.265625 -0.21875q0.09375 -0.125 0.171875 -0.546875q0.078125 -0.421875 0.078125 -1.421875l0 -4.09375q0 -1.078125 -0.0625 -1.921875q-0.0625 -0.84375 -0.1875 -1.328125q-0.125 -0.5 -0.28125 -0.71875q-0.140625 -0.234375 -0.34375 -0.390625q-0.203125 -0.171875 -0.484375 -0.265625q-0.265625 -0.09375 -0.765625 -0.09375q-0.46875 0 -0.90625 0.203125q-0.4375 0.1875 -1.015625 0.703125q-0.5625 0.515625 -0.796875 0.96875q-0.234375 0.453125 -0.234375 1.046875l0 5.828125q0 1.265625 0.078125 1.640625q0.09375 0.375 0.296875 0.53125q0.21875 0.15625 1.375 0.453125l0 1.9375l-7.4375 0l0 -1.90625q1.015625 -0.3125 1.171875 -0.390625q0.15625 -0.09375 0.25 -0.21875q0.109375 -0.140625 0.1875 -0.546875q0.078125 -0.421875 0.078125 -1.453125l0 -6.8125q0 -0.984375 -0.03125 -1.515625q-0.015625 -0.53125 -0.125 -0.734375q-0.109375 -0.203125 -0.359375 -0.3125q-0.234375 -0.125 -1.390625 -0.328125l0 -2.0l4.296875 -0.171875l1.671875 0l-0.5625 2.984375l-0.203125 -0.15625q0.84375 -1.234375 1.609375 -1.765625q0.765625 -0.546875 1.578125 -0.859375q0.828125 -0.3125 1.765625 -0.3125q0.9375 0 1.703125 0.234375q0.78125 0.21875 1.390625 0.703125q0.609375 0.484375 0.984375 1.203125q0.390625 0.703125 0.5625 1.625q0.1875 0.921875 0.1875 2.28125l0 5.890625q0 1.03125 0.046875 1.4375q0.0625 0.390625 0.140625 0.53125q0.078125 0.140625 0.265625 0.25q0.1875 0.109375 1.3125 0.421875l0 1.921875zm14.28125 -15.71875l0 4.40625l-3.140625 0q-0.375 -1.40625 -0.6875 -1.859375q-0.296875 -0.46875 -0.671875 -0.625q-0.359375 -0.171875 -0.984375 -0.171875q-0.859375 0 -1.546875 0.578125q-0.671875 0.5625 -1.125 1.859375q-0.4375 1.296875 -0.4375 3.265625q0 1.265625 0.171875 2.28125q0.171875 1.015625 0.546875 1.671875q0.390625 0.65625 0.984375 1.015625q0.59375 0.34375 1.53125 0.34375q0.9375 0 1.734375 -0.359375q0.8125 -0.375 2.21875 -1.875l1.75 2.03125q-1.21875 1.34375 -1.890625 1.859375q-0.65625 0.515625 -1.421875 0.875q-0.765625 0.34375 -1.515625 0.5q-0.734375 0.171875 -1.609375 0.171875q-3.265625 0 -5.0 -2.171875q-1.734375 -2.171875 -1.734375 -6.109375q0 -2.46875 0.953125 -4.40625q0.953125 -1.9375 2.6875 -3.0q1.734375 -1.078125 3.984375 -1.078125q1.328125 0 2.453125 0.15625q1.140625 0.15625 2.75 0.640625zm6.9375 -6.65625l0 4.34375l-4.1875 0l0 -4.34375l4.1875 0zm-5.78125 20.46875q1.015625 -0.3125 1.171875 -0.390625q0.15625 -0.09375 0.25 -0.21875q0.109375 -0.140625 0.1875 -0.546875q0.078125 -0.421875 0.078125 -1.453125l0 -6.8125q0 -0.984375 -0.03125 -1.515625q-0.015625 -0.53125 -0.125 -0.734375q-0.109375 -0.203125 -0.359375 -0.3125q-0.234375 -0.125 -1.390625 -0.328125l0 -2.0l4.28125 -0.171875l1.625 0l0 11.828125q0 1.265625 0.078125 1.640625q0.09375 0.375 0.296875 0.53125q0.21875 0.15625 1.375 0.453125l0 1.9375l-7.4375 0l0 -1.90625zm19.43747 -15.734375q0 -1.484375 -0.03125 -2.03125q-0.015625 -0.5625 -0.09375 -0.875q-0.078125 -0.3125 -0.171875 -0.421875q-0.078125 -0.125 -0.28121948 -0.21875q-0.1875 -0.09375 -1.4375 -0.3125l0 -1.984375l4.4218445 -0.1875l1.59375 0l0 18.75q0 1.1875 0.03125 1.640625q0.046875 0.4375 0.125 0.609375q0.09375 0.171875 0.296875 0.296875q0.203125 0.109375 1.46875 0.375l0 1.96875l-4.328125 0.1875l-1.65625 0l0.578125 -2.984375l0.21875 0.171875q-0.6875 1.078125 -1.4843445 1.640625q-0.78125 0.5625 -1.703125 0.921875q-0.90625 0.34375 -1.96875 0.34375q-2.90625 0 -4.453125 -2.171875q-1.546875 -2.171875 -1.546875 -6.046875q0 -2.71875 0.984375 -4.65625q0.984375 -1.953125 2.6875 -2.921875q1.703125 -0.96875 3.796875 -0.96875q1.09375 0 2.0 0.1875q0.9062195 0.171875 0.9687195 0.203125l-0.015625 -1.515625zm0 7.71875q0 -1.171875 -0.109375 -1.828125q-0.09375 -0.65625 -0.296875 -1.046875q-0.18746948 -0.390625 -0.5312195 -0.640625q-0.328125 -0.265625 -0.75 -0.390625q-0.40625 -0.125 -1.046875 -0.125q-1.640625 0 -2.546875 1.375q-0.890625 1.375 -0.890625 4.171875q0 2.828125 0.71875 4.15625q0.734375 1.3125 2.09375 1.3125q0.609375 0 0.96875 -0.09375q0.375 -0.09375 0.734375 -0.296875q0.359375 -0.21875 0.75 -0.609375q0.390625 -0.40625 0.5468445 -0.6875q0.171875 -0.296875 0.265625 -0.703125q0.09375 -0.40625 0.09375 -1.09375l0 -3.5zm21.25 6.609375q-1.46875 1.546875 -2.375 2.1875q-0.90625 0.640625 -2.0 1.015625q-1.09375 0.359375 -2.40625 0.359375q-3.515625 0 -5.34375 -2.140625q-1.8125 -2.140625 -1.8125 -6.140625q0 -2.46875 0.90625 -4.40625q0.90625 -1.9375 2.609375 -3.0q1.71875 -1.078125 3.921875 -1.078125q1.71875 0 2.96875 0.5625q1.25 0.5625 2.0 1.546875q0.75 0.984375 1.140625 2.40625q0.40625 1.421875 0.46875 4.296875l-10.234375 -0.375l0.375 0q0 1.734375 0.359375 2.84375q0.375 1.109375 1.140625 1.703125q0.78125 0.578125 2.078125 0.578125q1.140625 0 2.03125 -0.421875q0.90625 -0.421875 2.3125 -1.90625l1.859375 1.96875zm-4.21875 -7.0q-0.0625 -0.921875 -0.359375 -1.859375q-0.28125 -0.9375 -0.78125 -1.359375q-0.484375 -0.4375 -1.296875 -0.4375q-1.28125 0 -2.09375 1.078125q-0.796875 1.078125 -0.90625 2.578125l5.4375 0zm22.3125 10.3125l-7.46875 0l0 -1.90625q1.015625 -0.3125 1.1875 -0.40625q0.171875 -0.09375 0.265625 -0.21875q0.09375 -0.125 0.171875 -0.546875q0.078125 -0.421875 0.078125 -1.421875l0 -4.09375q0 -1.078125 -0.0625 -1.921875q-0.0625 -0.84375 -0.1875 -1.328125q-0.125 -0.5 -0.28125 -0.71875q-0.140625 -0.234375 -0.34375 -0.390625q-0.203125 -0.171875 -0.484375 -0.265625q-0.265625 -0.09375 -0.765625 -0.09375q-0.46875 0 -0.90625 0.203125q-0.4375 0.1875 -1.015625 0.703125q-0.5625 0.515625 -0.796875 0.96875q-0.234375 0.453125 -0.234375 1.046875l0 5.828125q0 1.265625 0.078125 1.640625q0.09375 0.375 0.296875 0.53125q0.21875 0.15625 1.375 0.453125l0 1.9375l-7.4375 0l0 -1.90625q1.015625 -0.3125 1.171875 -0.390625q0.15625 -0.09375 0.25 -0.21875q0.109375 -0.140625 0.1875 -0.546875q0.078125 -0.421875 0.078125 -1.453125l0 -6.8125q0 -0.984375 -0.03125 -1.515625q-0.015625 -0.53125 -0.125 -0.734375q-0.109375 -0.203125 -0.359375 -0.3125q-0.234375 -0.125 -1.390625 -0.328125l0 -2.0l4.296875 -0.171875l1.671875 0l-0.5625 2.984375l-0.203125 -0.15625q0.84375 -1.234375 1.609375 -1.765625q0.765625 -0.546875 1.578125 -0.859375q0.828125 -0.3125 1.765625 -0.3125q0.9375 0 1.703125 0.234375q0.78125 0.21875 1.390625 0.703125q0.609375 0.484375 0.984375 1.203125q0.390625 0.703125 0.5625 1.625q0.1875 0.921875 0.1875 2.28125l0 5.890625q0 1.03125 0.046875 1.4375q0.0625 0.390625 0.140625 0.53125q0.078125 0.140625 0.265625 0.25q0.1875 0.109375 1.3125 0.421875l0 1.921875zm14.28125 -15.71875l0 4.40625l-3.140625 0q-0.375 -1.40625 -0.6875 -1.859375q-0.296875 -0.46875 -0.671875 -0.625q-0.359375 -0.171875 -0.984375 -0.171875q-0.859375 0 -1.546875 0.578125q-0.671875 0.5625 -1.125 1.859375q-0.4375 1.296875 -0.4375 3.265625q0 1.265625 0.171875 2.28125q0.171875 1.015625 0.546875 1.671875q0.390625 0.65625 0.984375 1.015625q0.59375 0.34375 1.53125 0.34375q0.9375 0 1.734375 -0.359375q0.8125 -0.375 2.21875 -1.875l1.75 2.03125q-1.21875 1.34375 -1.890625 1.859375q-0.65625 0.515625 -1.421875 0.875q-0.765625 0.34375 -1.515625 0.5q-0.734375 0.171875 -1.609375 0.171875q-3.265625 0 -5.0 -2.171875q-1.734375 -2.171875 -1.734375 -6.109375q0 -2.46875 0.953125 -4.40625q0.953125 -1.9375 2.6875 -3.0q1.734375 -1.078125 3.984375 -1.078125q1.328125 0 2.453125 0.15625q1.140625 0.15625 2.75 0.640625zm15.203125 12.40625q-1.46875 1.546875 -2.375 2.1875q-0.90625 0.640625 -2.0 1.015625q-1.09375 0.359375 -2.40625 0.359375q-3.515625 0 -5.34375 -2.140625q-1.8125 -2.140625 -1.8125 -6.140625q0 -2.46875 0.90625 -4.40625q0.90625 -1.9375 2.609375 -3.0q1.71875 -1.078125 3.921875 -1.078125q1.71875 0 2.96875 0.5625q1.25 0.5625 2.0 1.546875q0.75 0.984375 1.140625 2.40625q0.40625 1.421875 0.46875 4.296875l-10.234375 -0.375l0.375 0q0 1.734375 0.359375 2.84375q0.375 1.109375 1.140625 1.703125q0.78125 0.578125 2.078125 0.578125q1.140625 0 2.03125 -0.421875q0.90625 -0.421875 2.3125 -1.90625l1.859375 1.96875zm-4.21875 -7.0q-0.0625 -0.921875 -0.359375 -1.859375q-0.28125 -0.9375 -0.78125 -1.359375q-0.484375 -0.4375 -1.296875 -0.4375q-1.28125 0 -2.09375 1.078125q-0.796875 1.078125 -0.90625 2.578125l5.4375 0z" fill-rule="nonzero"/><path fill="#000000" fill-opacity="0.0" d="m212.97546 32.797314l291.81104 319.87402l-44.97638 41.007874l-291.81104 -319.87402z" fill-rule="evenodd"/><path fill="#000000" d="m263.6304 114.05972l-3.2098389 2.9266129l-2.8222046 -3.0935974l3.2098389 -2.9266205l2.8222046 3.093605zm-19.021805 9.519882q0.9154053 0.5397644 1.0784454 0.60256195q0.1745758 0.052268982 0.33013916 0.03730774q0.17762756 -0.013946533 0.5304718 -0.22994232q0.3644104 -0.22652435 1.1264496 -0.9213333l5.034134 -4.589943q0.727417 -0.6632309 1.0989227 -1.0442505q0.3820343 -0.3694687 0.45843506 -0.5871277q0.0763855 -0.217659 -0.011291504 -0.4760437q-0.065582275 -0.25737 -0.6947479 -1.2484283l1.4779053 -1.3475113l3.0124054 3.047058l1.0951843 1.2005005l-8.7404785 7.969246q-0.9352417 0.85272217 -1.1596985 1.1630936q-0.21392822 0.3219223 -0.19248962 0.57725525q0.031967163 0.26688385 0.5918579 1.3211136l-1.4317322 1.3053894l-5.012558 -5.494606l1.4086456 -1.2843399zm15.724625 20.065277l-5.0336304 -5.5177l1.4086304 -1.2843323q0.9154053 0.5397644 1.1005249 0.60357666q0.18511963 0.063812256 0.34066772 0.048843384q0.1555481 -0.014953613 0.5199585 -0.2414856q0.3644104 -0.22651672 1.103363 -0.90026855l3.0250854 -2.7581787q0.7966919 -0.72639465 1.3780518 -1.3410492q0.5813904 -0.61465454 0.855072 -1.0333557q0.2852173 -0.42921448 0.34158325 -0.69203186q0.07839966 -0.26179504 0.05697632 -0.5171356q-0.009887695 -0.26586914 -0.13015747 -0.5368042q-0.10974121 -0.2593994 -0.4467163 -0.6287842q-0.31591797 -0.34631348 -0.7608948 -0.53266907q-0.43341064 -0.1968689 -1.204071 -0.2765808q-0.7601013 -0.06814575 -1.2528992 0.06399536q-0.49279785 0.13214111 -0.9315796 0.53219604l-4.3067017 3.926712q-0.93525696 0.85272217 -1.1597137 1.1631012q-0.21391296 0.32191467 -0.19248962 0.57725525q0.031967163 0.26687622 0.5918579 1.321106l-1.4317322 1.3053894l-5.012558 -5.4945984l1.4086456 -1.2843475q0.9154053 0.5397644 1.0784454 0.6025543q0.1745758 0.05227661 0.33013916 0.037322998q0.17762756 -0.013946533 0.5304718 -0.22994995q0.3644104 -0.22651672 1.1264496 -0.9213257l5.034134 -4.5899506q0.727417 -0.6632309 1.098938 -1.0442429q0.38201904 -0.36947632 0.45840454 -0.5871353q0.0763855 -0.217659 -0.011260986 -0.4760437q-0.065582275 -0.25737 -0.6947632 -1.2484283l1.4779053 -1.3475113l3.0229187 3.0586014l1.12677 1.2351379l-2.5844116 1.5951691l-0.02142334 -0.25533295q1.4807739 -0.20832825 2.3893433 -6.4086914E-4q0.9201355 0.19716644 1.6986389 0.5868683q0.789032 0.40124512 1.4208679 1.0938416q0.63183594 0.69260406 0.9746399 1.4161301q0.36489868 0.72454834 0.41766357 1.5010834q0.052764893 0.77653503 -0.22564697 1.5378418q-0.25631714 0.76231384 -0.8216858 1.5104065q-0.5548706 0.75964355 -1.5593872 1.6755219l-4.3529053 3.9688263q-0.76205444 0.69480896 -1.0306702 1.0031586q-0.246521 0.3093567 -0.29779053 0.4618225q-0.05126953 0.15246582 -0.005706787 0.3646698q0.045532227 0.21221924 0.57281494 1.2538757l-1.420166 1.2948761zm21.240387 -0.040008545l-3.256012 2.9687347l-2.1166382 -2.3202057q0.7864075 -1.2245026 0.91064453 -1.7606659q0.14630127 -0.535141 0.009033203 -0.9174652q-0.11520386 -0.38128662 -0.5364075 -0.8430176q-0.5791931 -0.6348877 -1.4697571 -0.75328064q-0.86846924 -0.117370605 -2.1322021 0.42164612q-1.2531738 0.5505676 -2.7080078 1.8770142q-0.9352417 0.85272217 -1.5698853 1.6639862q-0.6346741 0.8112488 -0.8668823 1.5304413q-0.22167969 0.73072815 -0.08706665 1.4115143q0.14614868 0.6702423 0.7779846 1.3628387q0.63183594 0.69259644 1.4344482 1.0391693q0.82470703 0.3475952 2.88089 0.37586975l-0.32159424 2.6614075q-1.8143616 0.0049743652 -2.6481934 -0.14398193q-0.8233032 -0.1374054 -1.6048584 -0.46090698q-0.77001953 -0.3340149 -1.3909607 -0.78282166q-0.62194824 -0.4267273 -1.2116394 -1.0731506q-2.2008972 -2.4125519 -1.7648621 -5.1571655q0.43600464 -2.7446136 3.345642 -5.397522q1.8243103 -1.6633301 3.898407 -2.2645874q2.0740967 -0.6012573 4.0281067 -0.035812378q1.9656067 0.5549164 3.4819946 2.2171478q0.8951111 0.9811859 1.5378418 1.917572q0.6532593 0.947937 1.3799744 2.4632416zm-5.9978333 17.119354q-2.390442 -2.6203156 -2.1059265 -5.438263q0.29608154 -2.8284607 3.2519226 -5.523468q2.0205688 -1.8423004 4.105194 -2.432022q2.0951538 -0.5781708 3.9578552 0.049423218q1.8847351 0.6286011 3.3484802 2.2331238q2.4536438 2.6895905 2.1344604 5.5391083q-0.29708862 2.8505402 -3.1720886 5.471863q-2.032135 1.8528137 -4.095703 2.465622q-2.0635376 0.61279297 -3.970398 -0.016830444q-1.8847351 -0.6286011 -3.4537964 -2.3485565zm4.2633057 -8.031494q-2.2399597 2.0423126 -2.758667 3.6993713q-0.49664307 1.6580658 0.53533936 2.7893066q0.56866455 0.6233368 1.2584839 0.7767334q0.7003784 0.16493225 1.5062866 -0.041275024q0.82803345 -0.20518494 1.7279968 -0.7720032q0.911499 -0.5773468 1.7774658 -1.3668976q1.6164551 -1.4738464 2.3166199 -2.7465515q0.71066284 -1.2611694 0.6534729 -2.1816711q-0.046661377 -0.90896606 -0.6469116 -1.566925q-1.0320129 -1.1312408 -2.6503296 -0.81866455q-1.6183472 0.31259155 -3.719757 2.2285767zm15.747864 9.70433l-0.009887695 -0.26586914q1.1265564 -0.20251465 1.9277954 -0.06611633q0.81277466 0.12586975 1.476471 0.36653137q0.6636658 0.24066162 1.146698 0.5614624q0.4935608 0.33236694 0.8937073 0.77101135q1.2005005 1.3159332 1.344696 2.7491455q0.1663208 1.4342194 -0.16610718 1.9276276q0.54037476 0.03591919 1.5171814 0.20251465q0.97683716 0.16659546 1.8100281 0.56987q0.83322144 0.4032898 1.5071716 1.1420593q0.7897949 0.8657379 1.1244812 1.7658386q0.34518433 0.91163635 0.19012451 1.8776703q-0.1329956 0.9670563 -0.7391052 1.8791504q-0.5956116 0.923645 -1.8425903 2.060608l-4.3529053 3.9688263q-0.83132935 0.7579651 -1.0663147 1.0568085q-0.2234497 0.28829956 -0.27468872 0.44076538q-0.039733887 0.14193726 0.0058288574 0.35414124q0.045532227 0.21221924 0.56329346 1.2202606l-1.4201965 1.2948761l-5.0230713 -5.5061493l1.4086304 -1.2843475q0.9154053 0.5397644 1.1005249 0.60357666q0.18511963 0.063812256 0.34066772 0.048858643q0.1555481 -0.014968872 0.5199585 -0.2414856q0.3644104 -0.22653198 1.103363 -0.9002838l3.0250854 -2.7581787q0.9583435 -0.87376404 1.506073 -1.4789124q0.5698242 -0.604126 0.8088989 -0.99124146q0.24957275 -0.37556458 0.29437256 -0.6278534q0.05633545 -0.26281738 0.045440674 -0.50660706q-0.010925293 -0.24380493 -0.121673584 -0.48112488q-0.09921265 -0.24786377 -0.42565918 -0.60569763q-0.32644653 -0.35784912 -0.7608948 -0.5326538q-0.42285156 -0.18534851 -1.1724548 -0.24195862q-0.7496033 -0.056610107 -1.2655029 0.096588135q-0.49380493 0.15422058 -0.9902954 0.6069031l-4.2143555 3.8424988q-0.83132935 0.7579651 -1.0663147 1.0568085q-0.22341919 0.28829956 -0.27468872 0.44076538q-0.039733887 0.141922 0.0058288574 0.35414124q0.045532227 0.21220398 0.56329346 1.2202606l-1.420166 1.2948761l-5.023102 -5.5061493l1.4086304 -1.2843475q0.9154358 0.5397644 1.1005249 0.60357666q0.18511963 0.063812256 0.34066772 0.048858643q0.15557861 -0.014968872 0.5199585 -0.2414856q0.3644104 -0.22653198 1.103363 -0.9002838l3.0250854 -2.7581787q1.0045166 -0.9158783 1.5638123 -1.5315552q0.56985474 -0.604126 0.79837036 -1.0027771q0.22851562 -0.39865112 0.2753296 -0.6950836q0.058380127 -0.30696106 0.023345947 -0.5076294q-0.035003662 -0.20066833 -0.16784668 -0.43901062q-0.1328125 -0.23834229 -0.38555908 -0.51538086q-0.32644653 -0.35784912 -0.8050232 -0.5346985q-0.47857666 -0.1768341 -1.184021 -0.2314148q-0.6833801 -0.05357361 -1.1877136 0.08911133q-0.5043335 0.14266968 -0.8969116 0.5005951l-4.3298035 3.9477844q-0.6350403 0.57901 -0.9141846 0.8758087q-0.26861572 0.30833435 -0.35351562 0.4703064q-0.07333374 0.15145874 -0.07839966 0.2618103q-0.0050964355 0.11035156 0.050994873 0.33410645q0.05606079 0.22375488 0.53375244 1.1414948l-1.4201965 1.2948608l-5.0125427 -5.4945984l1.4086304 -1.2843475q0.89434814 0.51667786 1.0794678 0.5804901q0.18508911 0.063812256 0.34066772 0.048858643q0.1555481 -0.014968872 0.50839233 -0.23095703q0.3644104 -0.22653198 1.1264648 -0.92134094l5.0341187 -4.5899506q0.727417 -0.66322327 1.098938 -1.0442352q0.38201904 -0.36947632 0.45840454 -0.58714294q0.0763855 -0.21765137 -0.011260986 -0.4760437q-0.06561279 -0.25737 -0.6947632 -1.2484283l1.4779053 -1.3475037l3.0229187 3.058609l1.12677 1.2351227l-2.5844116 1.5951843zm24.971771 14.065674l-3.2098389 2.9266205l-2.8222046 -3.0935974l3.2098694 -2.9266205l2.822174 3.0935974zm-19.02182 9.519882q0.9154053 0.5397644 1.0784607 0.6025696q0.17459106 0.052261353 0.33013916 0.03730774q0.1776123 -0.013946533 0.53048706 -0.22994995q0.36437988 -0.22651672 1.1264343 -0.9213257l5.034149 -4.5899506q0.7273865 -0.66322327 1.0989075 -1.0442505q0.38204956 -0.36946106 0.45843506 -0.5871277q0.0763855 -0.21765137 -0.011291504 -0.4760437q-0.065582275 -0.25737 -0.69473267 -1.2484283l1.4779053 -1.3475037l3.0123901 3.047058l1.0951843 1.2005005l-8.7404785 7.9692383q-0.9352417 0.85272217 -1.1596985 1.1631012q-0.21392822 0.32191467 -0.19247437 0.57725525q0.031951904 0.26687622 0.5918274 1.321106l-1.4317017 1.3053894l-5.0125732 -5.4945984l1.4086304 -1.2843475zm15.72464 20.065277l-5.0336304 -5.5177l1.4086304 -1.2843323q0.9154053 0.5397644 1.1005249 0.60357666q0.18511963 0.063812256 0.34066772 0.048843384q0.1555481 -0.014953613 0.5199585 -0.24147034q0.3644104 -0.22653198 1.103363 -0.9002838l3.0250854 -2.7581787q0.7966919 -0.72639465 1.3780518 -1.3410492q0.5813904 -0.61465454 0.855072 -1.0333405q0.2852478 -0.42922974 0.34158325 -0.6920471q0.07839966 -0.26179504 0.05697632 -0.5171356q-0.009887695 -0.26586914 -0.13015747 -0.5368042q-0.10974121 -0.2593994 -0.4467163 -0.6287842q-0.31591797 -0.34629822 -0.7608948 -0.5326538q-0.43341064 -0.19688416 -1.204071 -0.2765808q-0.7601013 -0.06816101 -1.2528992 0.0639801q-0.49279785 0.13215637 -0.9315796 0.53219604l-4.3067017 3.926712q-0.9352417 0.85272217 -1.1596985 1.1631012q-0.21392822 0.32191467 -0.19250488 0.57725525q0.031982422 0.26687622 0.5918579 1.321106l-1.4317322 1.3053894l-5.0125427 -5.4945984l1.4086304 -1.2843475q0.9154053 0.5397644 1.0784302 0.6025696q0.17459106 0.052261353 0.33013916 0.03730774q0.17764282 -0.013946533 0.53048706 -0.22994995q0.3644104 -0.22651672 1.1264648 -0.9213257l5.0341187 -4.5899506q0.727417 -0.66322327 1.098938 -1.0442352q0.38201904 -0.36947632 0.45840454 -0.58714294q0.0763855 -0.21765137 -0.011260986 -0.4760437q-0.065582275 -0.25737 -0.6947632 -1.2484283l1.4779053 -1.3475037l3.0229187 3.0585938l1.12677 1.2351379l-2.5844116 1.5951691l-0.02142334 -0.25532532q1.4807739 -0.20832825 2.3893433 -6.4086914E-4q0.9201355 0.19715881 1.6986389 0.5868683q0.7890625 0.40124512 1.4208679 1.0938416q0.63183594 0.69259644 0.9746399 1.4161224q0.36489868 0.72454834 0.41766357 1.5010834q0.052764893 0.7765503 -0.22564697 1.5378418q-0.25628662 0.76231384 -0.8216858 1.5104065q-0.5548706 0.75964355 -1.5593872 1.6755219l-4.3529053 3.9688416q-0.76205444 0.69480896 -1.0306702 1.0031433q-0.246521 0.3093567 -0.29779053 0.4618225q-0.05126953 0.15246582 -0.005706787 0.3646698q0.045532227 0.21221924 0.57281494 1.2538757l-1.420166 1.2948761zm21.074493 3.3252716l-1.9995422 -2.7018738l0.2088623 -0.21156311q0.39102173 0.6372833 -0.11425781 1.5208435q-0.4831543 0.8845825 -1.2798462 1.6109772q-2.10141 1.9159851 -4.4565125 1.6527863q-2.344574 -0.25164795 -4.461212 -2.5718384q-0.9477539 -1.0389099 -1.2474365 -1.738327q-0.8012085 -0.13639832 -1.2053528 0.23205566q-0.26553345 0.24212646 -0.30526733 0.38406372q-0.01763916 0.1429596 0.16583252 0.4831543q0.1949768 0.3296814 0.85842896 1.0569l2.5273132 2.770401q1.2215576 1.3390198 1.5936584 2.627884q0.3826294 1.3004303 -0.032928467 2.3982391q-0.4039917 1.0872803 -1.3738708 1.9715729q-1.2470093 1.1369629 -2.8697815 1.3055878q-1.6122437 0.18016052 -3.2996826 -0.64949036q-1.6884766 -0.8075714 -3.204895 -2.4698029q-1.0951843 -1.2005005 -1.8717651 -2.3531647q-0.788147 -1.1421356 -1.1231995 -2.2744904q-0.33605957 -1.1102753 -0.09915161 -2.1720734q0.23590088 -1.0397186 1.1942139 -1.9134979q0.90060425 -0.8211365 2.1209412 -0.8976898q1.2192993 -0.054473877 1.770935 0.457489q-0.33963013 -0.07092285 -0.16555786 -0.96972656q0.18463135 -0.8872528 0.9236145 -1.5610046q0.80822754 -0.7369232 1.8328857 -0.88882446q1.0467529 -0.15089417 1.7491455 -0.03010559q-0.11010742 -0.49165344 0.3838501 -1.8512573q0.5045166 -1.3480682 1.6822205 -2.4218597q1.0968933 -1.0001068 2.2651978 -1.3886871q1.178833 -0.37704468 2.3217468 -0.21386719q1.164978 0.16419983 2.2193298 0.8098755q1.0658875 0.63516235 1.9714966 1.6278839q0.81088257 0.8888397 1.3622437 1.8873749l4.117462 4.5134277l-2.1591187 1.9686279zm-9.1440735 -6.3371887q-1.2816162 1.1685486 -1.4838867 2.198761q-0.19174194 1.041748 0.598053 1.9075012q0.4212036 0.46173096 0.8671875 0.6260071q0.45751953 0.15376282 0.93673706 0.07627869q0.50128174 -0.07646179 1.0348206 -0.37260437q0.54507446 -0.3066864 1.0531006 -0.7698822q0.9121704 -0.83166504 1.2567749 -1.58992q0.35617065 -0.76878357 0.25012207 -1.3487091q-0.09451294 -0.59046936 -0.5578613 -1.0983734q-0.7897949 -0.8657379 -1.7778015 -0.78956604q-0.9764404 0.06565857 -2.177246 1.1605072zm-8.261993 7.4272614q-0.60354614 -0.10517883 -1.2172852 0.010345459q-0.60317993 0.12705994 -1.0881042 0.56921387q-0.76205444 0.69480896 -0.55337524 1.6886444q0.20767212 1.0158997 1.629303 2.574234q0.8635254 0.94654846 1.6851807 1.3603668q0.8206177 0.4358673 1.4985352 0.36753845q0.66638184 -0.05781555 1.1974792 -0.5420685q0.26556396 -0.24212646 0.432312 -0.49986267q0.15515137 -0.24720764 0.17990112 -0.5446625q0.023742676 -0.27537537 -0.15563965 -0.7038574q-0.18041992 -0.40641785 -0.71746826 -0.99513245l-1.5690613 -1.7199402q-0.87405396 -0.95809937 -1.3217773 -1.5648193zm25.853973 8.355743l-0.02243042 -0.23326111q1.1893616 -0.36549377 2.2113647 -0.21894836q1.0325317 0.15811157 1.9404602 0.6201172q0.9194641 0.45147705 1.7303162 1.3403168q0.6423645 0.7041321 1.42099 1.8126678l-3.5677795 3.2529602l-1.916565 -2.1008759q0.4828186 -1.1168365 0.47799683 -1.493042q0.005706787 -0.36468506 -0.32073975 -0.7225189q-0.26324463 -0.28858948 -0.7323303 -0.43180847q-0.46905518 -0.14323425 -1.1785583 -0.10952759q-0.68743896 0.034713745 -1.1160278 0.2140503q-0.42858887 0.17933655 -0.90197754 0.6109619l-4.041168 3.6845856q-0.96987915 0.88430786 -1.1848145 1.2282867q-0.1928711 0.34500122 -0.15039062 0.62342834q0.064575195 0.2794342 0.7243347 1.3271942l-1.454834 1.3264618l-5.1283875 -5.621582l1.4086304 -1.2843475q0.89434814 0.51667786 1.0794678 0.5804901q0.18511963 0.063812256 0.34066772 0.048858643q0.1555481 -0.014968872 0.50839233 -0.23095703q0.3644104 -0.22653198 1.1264648 -0.92134094l5.0341187 -4.5899353q0.727417 -0.6632385 1.098938 -1.0442505q0.38201904 -0.36947632 0.45840454 -0.5871277q0.0763855 -0.21766663 -0.011260986 -0.4760437q-0.065582275 -0.25737 -0.6947632 -1.2484283l1.4663696 -1.3369904l3.0344543 3.0480804l1.12677 1.2351379l-2.7661133 1.6973877zm3.6004333 19.59584l0.008880615 0.28793335q-1.8109436 0.17102051 -3.1689148 -0.36698914q-1.346405 -0.5485382 -2.3573608 -1.6566925q-0.90560913 -0.99272156 -1.229126 -2.1356049q-0.31195068 -1.1533966 0.037353516 -2.2542572q0.34933472 -1.1008606 1.2845764 -1.9535675q1.9743958 -1.8001862 4.6648254 -0.8912201q2.7009583 0.92051697 5.5553894 3.7944183l0.28863525 -0.2631836q1.1199951 -1.0211487 1.51828 -1.7437592q0.40881348 -0.7110596 0.3027649 -1.2910004q-0.083984375 -0.57891846 -0.7158203 -1.2715149q-0.65289307 -0.715683 -1.4119873 -0.8059082q-0.75912476 -0.09022522 -2.2296448 0.6162262l-2.1482544 -2.3548431l2.2745972 -2.0738983q2.0016174 0.7335205 2.973755 1.2427216q0.99420166 0.51020813 1.8719177 1.1477661q0.8892822 0.6270294 1.6264038 1.4350739q1.1478271 1.2582092 1.4682922 2.4673004q0.3204651 1.2090912 -0.18847656 2.4131775q-0.50894165 1.2041016 -2.1253967 2.677948l-4.0180664 3.6635284q-0.842865 0.7685089 -1.1671753 1.0853424q-0.31277466 0.30630493 -0.51312256 0.5735626q-0.18881226 0.25671387 -0.22851562 0.39865112q-0.03970337 0.14193726 0.0058288574 0.35414124q0.05606079 0.22375488 0.573822 1.2318115l-1.420166 1.2948761l-3.780487 -4.144043l2.2471924 -1.4779968zm2.9020386 -3.4494781q-1.6132202 -1.7219849 -3.016327 -2.2399597q-1.4031372 -0.51797485 -2.3153076 0.3136902q-0.5080261 0.46321106 -0.60406494 0.8679657q-0.08554077 0.41629028 0.07382202 0.7996216q0.15933228 0.3833313 0.591095 0.8565979q0.5897217 0.64642334 1.3858643 0.8931732q0.8182373 0.24777222 1.5549011 0.10473633q0.74819946 -0.15357971 1.1869507 -0.5536194l1.1430664 -1.0422058zm19.501648 5.7742615q1.0968933 -1.0000916 1.4799194 -1.3916473q0.40515137 -0.3905182 0.58340454 -0.65878296q0.17828369 -0.26826477 0.19592285 -0.41122437q0.03970337 -0.14193726 -0.027893066 -0.35516357q-0.05709839 -0.20167542 -0.7378845 -1.272522l1.4663391 -1.3369904l3.1187134 3.1404266l1.0741272 1.177414l-13.855438 12.632889q-0.87750244 0.80007935 -1.1912842 1.1284637q-0.291687 0.32939148 -0.36605835 0.5029144q-0.063812256 0.1850586 -0.01928711 0.41934204q0.05609131 0.22375488 0.71276855 1.3377228l-1.454834 1.3264618l-3.0555115 -3.071167l-1.1162415 -1.223587l2.5949402 -1.5836334l0.020446777 0.2774048q-1.2600403 0.2184906 -2.2127686 0.008758545q-0.9421997 -0.1981659 -1.829071 -0.6371002q-0.8647766 -0.43789673 -1.5808411 -1.2228394q-1.9586792 -2.147049 -1.3963013 -4.7531433q0.56240845 -2.6060944 3.4258423 -5.2168884q2.0090332 -1.8317719 4.104187 -2.4099426q2.10672 -0.58869934 3.970398 0.016830444q1.8637085 0.60549927 3.2747803 2.152298q0.7371521 0.8080292 1.2093811 1.6038666q0.48376465 0.7853241 0.5027771 0.8525543l1.1094666 -1.0327148zm-5.703827 5.2005463q0.8659668 -0.7895508 1.2771912 -1.3125153q0.42175293 -0.5114136 0.57351685 -0.9246521q0.16229248 -0.40170288 0.115356445 -0.8240967q-0.024871826 -0.42137146 -0.2168274 -0.81726074q-0.181427 -0.38435364 -0.6131592 -0.85762024q-1.1057129 -1.2120514 -2.7325745 -0.9551544q-1.616272 0.26846313 -3.6830444 2.1528625q-2.0898743 1.9054718 -2.5868835 3.3312836q-0.47494507 1.4268341 0.44119263 2.4310913q0.41070557 0.4501953 0.7221985 0.65252686q0.32199097 0.21386719 0.71429443 0.34251404q0.40386963 0.11810303 0.95578 0.14350891q0.56347656 0.014862061 0.8765869 -0.059188843q0.3352356 -0.07304382 0.6986084 -0.2775116q0.36340332 -0.20445251 0.87142944 -0.6676483l2.5863342 -2.358139zm17.953217 1.2021332l-3.2098389 2.9266205l-2.822174 -3.0936127l3.2098389 -2.9266205l2.822174 3.0936127zm-19.02182 9.519882q0.9154358 0.5397644 1.0784607 0.6025696q0.17459106 0.052246094 0.33013916 0.03729248q0.1776123 -0.013946533 0.53048706 -0.22991943q0.36437988 -0.22653198 1.1264343 -0.9213562l5.034149 -4.5899353q0.7273865 -0.66322327 1.0989075 -1.0442505q0.38204956 -0.36947632 0.45843506 -0.5871277q0.0763855 -0.21766663 -0.011291504 -0.4760437q-0.065582275 -0.25737 -0.69473267 -1.2484283l1.4779053 -1.3475189l3.0123901 3.0470734l1.0951843 1.2005005l-8.7404785 7.9692535q-0.9352417 0.85269165 -1.1596985 1.1630859q-0.21392822 0.3218994 -0.19247437 0.57724q0.031951904 0.26687622 0.5918274 1.321106l-1.4317017 1.3053894l-5.0125732 -5.4945984l1.4086304 -1.2843323zm12.853943 12.977234l0.008880615 0.28793335q-1.8109436 0.17102051 -3.1689148 -0.36697388q-1.346405 -0.54855347 -2.3573303 -1.6567078q-0.90563965 -0.9927063 -1.2291565 -2.1355896q-0.31195068 -1.1534119 0.037353516 -2.2542725q0.34933472 -1.1008606 1.2845764 -1.9535828q1.9743958 -1.8001709 4.6648254 -0.89120483q2.7009583 0.9205322 5.5553894 3.7944336l0.28866577 -0.2631836q1.1199646 -1.0211487 1.5182495 -1.7437744q0.40881348 -0.7110596 0.3027649 -1.2909851q-0.083984375 -0.57891846 -0.7157898 -1.2715149q-0.6529236 -0.71569824 -1.4120178 -0.8059082q-0.75912476 -0.09024048 -2.2296448 0.61621094l-2.1482544 -2.354828l2.2745972 -2.0738983q2.0016174 0.73350525 2.973755 1.2427216q0.99420166 0.5101929 1.8719177 1.1477661q0.8892822 0.62701416 1.6264343 1.4350586q1.1478271 1.2582092 1.4682922 2.4673157q0.3204651 1.2090759 -0.18847656 2.4131775q-0.50894165 1.2041016 -2.1254272 2.6779175l-4.0180664 3.6635437q-0.842865 0.76849365 -1.1671753 1.0853577q-0.31277466 0.30630493 -0.51312256 0.57354736q-0.18878174 0.25671387 -0.22851562 0.39865112q-0.03970337 0.14193726 0.0058288574 0.3541565q0.05609131 0.22375488 0.57385254 1.2318115l-1.4201965 1.2948608l-3.7804565 -4.144043l2.2471619 -1.4779968zm2.9020386 -3.449463q-1.6131897 -1.7219849 -3.016327 -2.2399597q-1.4031372 -0.51797485 -2.315277 0.3136902q-0.5080261 0.4631958 -0.60409546 0.86795044q-0.08554077 0.41629028 0.07382202 0.7996216q0.15933228 0.3833313 0.591095 0.8565979q0.5897217 0.64642334 1.3858643 0.8931885q0.8182373 0.24777222 1.5549011 0.10473633q0.74819946 -0.15359497 1.1869507 -0.5536194l1.1430664 -1.0422058zm10.087494 -1.1835632q0.94940186 0.7624817 1.3542786 0.8585205q0.41537476 0.10760498 0.8293762 0.005004883q0.42456055 -0.09106445 1.0158081 -0.43984985q0.6133423 -0.34777832 2.2261047 -1.5010681l2.3272705 2.551056l-2.8518982 2.6002808l3.4013672 3.728485l-2.1360474 1.9475708l-3.4013672 -3.728485l-4.6531067 4.2425537q-1.0853577 0.989563 -1.61203 1.6177979q-0.5151367 0.6177063 -0.6237793 1.0550537q-0.08654785 0.4383545 -0.012451172 0.7514038q0.09616089 0.3140869 0.45422363 0.70654297q0.32644653 0.35784912 0.76086426 0.5326538q0.4449463 0.18637085 1.7559814 0.30197144l-0.33044434 2.3734741q-2.2613525 -0.13720703 -3.413147 -0.5883484q-1.1296997 -0.45007324 -1.9510803 -1.3504639q-1.5690613 -1.7199402 -1.3091736 -3.5216064q0.2598877 -1.8016663 2.3151245 -3.6755676l5.9231873 -5.400543l-1.5585327 -1.7084045l1.4894714 -1.3580322zm16.998535 8.246826l-3.2098389 2.9266052l-2.8222046 -3.0935974l3.2098389 -2.9266052l2.8222046 3.0935974zm-19.02182 9.519867q0.9154053 0.5397949 1.0784302 0.6025696q0.17459106 0.05227661 0.33013916 0.037322998q0.17764282 -0.013946533 0.53048706 -0.22994995q0.3644104 -0.22653198 1.1264648 -0.9213257l5.0341187 -4.589966q0.727417 -0.663208 1.0989075 -1.04422q0.38204956 -0.36947632 0.45843506 -0.5871582q0.0763855 -0.21765137 -0.011260986 -0.4760437q-0.06561279 -0.25735474 -0.6947632 -1.2484131l1.4779053 -1.3475037l3.0123901 3.047058l1.0951843 1.2005005l-8.7404785 7.9692383q-0.9352417 0.85272217 -1.159668 1.1630859q-0.21392822 0.32192993 -0.19250488 0.5772705q0.031982422 0.26687622 0.5918579 1.321106l-1.4317322 1.3053894l-5.0125427 -5.4945984l1.4086304 -1.2843628zm9.4216 13.527069q-2.390442 -2.6203308 -2.105896 -5.438263q0.29608154 -2.8284607 3.251892 -5.523468q2.0205994 -1.8423157 4.1052246 -2.4320068q2.0951538 -0.57818604 3.9578247 0.04940796q1.8847656 0.6286011 3.3485107 2.2331238q2.4536133 2.6895752 2.1344604 5.539093q-0.29711914 2.8505554 -3.1721191 5.471863q-2.032135 1.8528442 -4.0956726 2.4656372q-2.063568 0.61279297 -3.970398 -0.016815186q-1.8847656 -0.6286011 -3.453827 -2.3485718zm4.2633057 -8.031494q-2.2399597 2.042328 -2.758667 3.6993713q-0.49664307 1.658081 0.53533936 2.7893066q0.56866455 0.62335205 1.2584839 0.7767334q0.7003784 0.16491699 1.5063171 -0.041259766q0.8280029 -0.2052002 1.7279663 -0.7720337q0.911499 -0.57733154 1.7774658 -1.3668823q1.6164856 -1.4738464 2.3166199 -2.7465515q0.71066284 -1.2611694 0.6534729 -2.1816711q-0.046661377 -0.90896606 -0.6469116 -1.566925q-1.0319824 -1.1312561 -2.6503296 -0.81866455q-1.6183472 0.31259155 -3.719757 2.2285767zm13.48645 27.11728l-5.0336304 -5.5177l1.4086304 -1.2843323q0.9154358 0.5397644 1.1005249 0.60357666q0.18511963 0.063812256 0.34066772 0.048828125q0.1555481 -0.014953613 0.5199585 -0.2414856q0.3644104 -0.22650146 1.103363 -0.90026855l3.0250854 -2.7581787q0.7966919 -0.7263794 1.3780823 -1.3410339q0.58135986 -0.61465454 0.8550415 -1.0333557q0.2852478 -0.42922974 0.34158325 -0.6920471q0.07839966 -0.2617798 0.05697632 -0.51712036q-0.009887695 -0.26586914 -0.13015747 -0.5368042q-0.10974121 -0.2593994 -0.4467163 -0.6287842q-0.31591797 -0.34631348 -0.7608948 -0.5326538q-0.43341064 -0.19689941 -1.2040405 -0.2765808q-0.76013184 -0.06817627 -1.2529297 0.063964844q-0.49279785 0.13217163 -0.9315491 0.53219604l-4.306732 3.9267273q-0.9352417 0.85272217 -1.1596985 1.1630859q-0.21392822 0.32192993 -0.19250488 0.5772705q0.031982422 0.26687622 0.5918579 1.321106l-1.4317322 1.3053894l-5.0125427 -5.4945984l1.4086304 -1.2843628q0.9154053 0.5397644 1.0784607 0.6025696q0.17456055 0.05227661 0.33013916 0.037322998q0.1776123 -0.013946533 0.53045654 -0.22994995q0.3644104 -0.22653198 1.1264648 -0.9213257l5.0341187 -4.589966q0.727417 -0.663208 1.098938 -1.0442505q0.38204956 -0.36947632 0.45843506 -0.5871277q0.0763855 -0.21765137 -0.011291504 -0.4760437q-0.065582275 -0.25735474 -0.6947632 -1.2484131l1.4779358 -1.3475037l3.0229187 3.0585938l1.12677 1.2351379l-2.5844421 1.5951538l-0.02142334 -0.25531006q1.4808044 -0.2083435 2.3893738 -6.4086914E-4q0.920105 0.19714355 1.6986084 0.586853q0.7890625 0.40124512 1.4208984 1.0938416q0.63183594 0.69259644 0.9746399 1.4161377q0.36486816 0.72454834 0.41763306 1.5010681q0.052764893 0.7765503 -0.22561646 1.5378418q-0.25631714 0.7623291 -0.8217163 1.5104065q-0.5548706 0.75964355 -1.5593872 1.6755371l-4.3529053 3.968811q-0.76205444 0.6948242 -1.0306396 1.0031738q-0.24655151 0.3093567 -0.29782104 0.4618225q-0.051239014 0.15246582 -0.005706787 0.36465454q0.045532227 0.21221924 0.57281494 1.2538757l-1.420166 1.2948914z" fill-rule="nonzero"/><path fill="#000000" fill-opacity="0.0" d="m715.5923 32.797314l-291.81104 319.87402l44.97638 41.007874l291.81104 -319.87402z" fill-rule="evenodd"/><path fill="#000000" d="m508.65942 298.9756l-0.23028564 0.043762207q-0.4732666 -1.1504211 -0.42114258 -2.181305q0.06265259 -1.0423889 0.43945312 -1.9886475q0.36523438 -0.9568176 1.1760864 -1.8456421q0.642395 -0.7041321 1.6750183 -1.5810547l3.5677795 3.2529602l-1.916565 2.1008606q-1.1567688 -0.37805176 -1.5310669 -0.3387146q-0.363739 0.027801514 -0.69018555 0.38565063q-0.26327515 0.28857422 -0.362854 0.76867676q-0.099609375 0.48010254 -8.544922E-4 1.1833191q0.097717285 0.68115234 0.31570435 1.0913696q0.21798706 0.41018677 0.69137573 0.8417969l4.0411377 3.6846008q0.96990967 0.88430786 1.3322754 1.0666809q0.36132812 0.16030884 0.6347656 0.092437744q0.2723999 -0.0899353 1.2554321 -0.842926l1.454834 1.3264465l-5.128418 5.621582l-1.4086304 -1.2843323q0.43249512 -0.93777466 0.47906494 -1.1279297q0.046569824 -0.19012451 0.01739502 -0.34362793q-0.029174805 -0.1534729 -0.2767334 -0.4848938q-0.25909424 -0.34194946 -1.0211792 -1.0367737l-5.0341187 -4.5899353q-0.727417 -0.6632385 -1.1410217 -0.9980774q-0.4031067 -0.34640503 -0.6269226 -0.4024353q-0.22381592 -0.05606079 -0.47314453 0.05493164q-0.25030518 0.08892822 -1.1796875 0.8062744l-1.4663696 -1.3369751l2.7573547 -3.3007202l1.12677 -1.2351379l1.9447327 2.5977783zm21.914673 -9.34671q0.15319824 2.1272888 0.015808105 3.228424q-0.13739014 1.1011353 -0.5974121 2.1618347q-0.47155762 1.0501404 -1.3561401 2.019806q-2.3693848 2.597229 -5.1832886 2.5055237q-2.8034058 -0.10321045 -5.7592163 -2.7982483q-1.8242798 -1.6633301 -2.6452637 -3.638214q-0.82092285 -1.9749146 -0.45825195 -3.9490051q0.36169434 -1.9961548 1.8464966 -3.6237488q1.1583862 -1.2697754 2.416504 -1.8142395q1.2580566 -0.5444946 2.4909668 -0.43533325q1.2328491 0.10916138 2.546814 0.77856445q1.3245239 0.65786743 3.49115 2.5487366l-7.1746216 7.308197l0.25268555 -0.27703857q1.2816772 1.1685486 2.343628 1.6504822q1.0725098 0.47039795 2.0272827 0.3048401q0.95373535 -0.18765259 1.8277588 -1.145752q0.7687378 -0.84265137 1.057251 -1.7848511q0.29901123 -0.95376587 0.14990234 -2.9927673l2.7079468 -0.047210693zm-8.015991 -1.5995789q-0.72332764 -0.5749512 -1.6161499 -0.98727417q-0.8823242 -0.42385864 -1.5310669 -0.3387146q-0.64971924 0.063079834 -1.1973267 0.6633301q-0.8635254 0.9465637 -0.6144409 2.2731934q0.25964355 1.315094 1.2943726 2.4065247l3.6646118 -4.0170593zm7.9421387 -13.226746l-2.5168457 2.75885l6.5005493 5.926941q0.72735596 0.663208 1.1033325 0.90026855q0.37493896 0.21496582 0.55358887 0.25097656q0.1776123 0.013946533 0.3953247 -0.062408447q0.22827148 -0.08792114 1.1817627 -0.762146l1.4432373 1.315918l-5.1915894 5.690857l-1.420166 -1.2948608q0.51776123 -1.0080566 0.56329346 -1.2202759q0.04559326 -0.21221924 -0.0056762695 -0.36468506q-0.040771484 -0.16400146 -0.29882812 -0.48388672q-0.25805664 -0.31988525 -1.0201416 -1.014679l-6.5004883 -5.926941l-1.274231 1.3967285l-1.5125122 -1.3790894q0.7385254 -1.0181885 0.7619629 -1.2294006q0.033996582 -0.22271729 -0.13476562 -0.52459717q-0.16870117 -0.30187988 -0.6798096 -0.8312988q-1.451416 -1.4924927 -1.9806519 -3.1380005q-0.52923584 -1.6455383 -0.09259033 -3.2138367q0.4251709 -1.5788574 1.6888428 -2.9640503q0.642334 -0.7041321 1.7642822 -1.5630493l3.0020142 2.7371216l-1.6638184 1.8238525q-1.0690918 -0.6364441 -1.345581 -0.63479614q-0.26593018 -0.009857178 -0.48706055 0.23254395q-0.26324463 0.28857422 -0.31524658 0.60061646q-0.05303955 0.28997803 0.122802734 0.7463379q0.17584229 0.45639038 0.725647 1.1056519q0.5487671 0.6272278 1.4493408 1.4483643l0.5311279 0.48425293l2.5168457 -2.75885l2.1360474 1.9475708zm10.428406 1.6212769q0.9352417 0.85272217 1.2650146 1.0476685q0.340271 0.18341064 0.59265137 0.13861084q0.26287842 -0.05633545 1.2615356 -0.71051025l1.4317017 1.3053894l-5.0651855 5.5523376l-1.420227 -1.2948914q0.54833984 -1.0647583 0.5718384 -1.27594q0.033996582 -0.2227478 -0.04034424 -0.39627075q-0.0859375 -0.184021 -0.38916016 -0.5239563q-0.3032837 -0.3399353 -0.9036865 -0.8873596l-9.664124 -8.811432q-1.0969238 -1.0000916 -1.5220947 -1.345459q-0.42614746 -0.36746216 -0.70977783 -0.5202942q-0.28356934 -0.15283203 -0.42755127 -0.15725708q-0.14501953 -0.026489258 -0.3511963 0.060394287q-0.19567871 0.0753479 -1.1997681 0.8514404l-1.4663696 -1.3369751l2.8311157 -3.3815308l1.0846558 -1.1889648l14.120972 12.875zm12.549438 -11.901581q0.15319824 2.1272583 0.015808105 3.2283936q-0.13739014 1.1011353 -0.5974121 2.1618347q-0.47155762 1.0501709 -1.3561401 2.019806q-2.3693848 2.597229 -5.1832886 2.5055542q-2.8033447 -0.10324097 -5.7592163 -2.7982483q-1.8242798 -1.6633301 -2.6452026 -3.6382446q-0.8209839 -1.9749146 -0.45825195 -3.9490051q0.3616333 -1.9961548 1.8464355 -3.6237488q1.1583862 -1.2697754 2.416504 -1.8142395q1.2581177 -0.5444641 2.4909668 -0.43533325q1.2329102 0.10916138 2.546875 0.77856445q1.3244629 0.65786743 3.4910889 2.5487366l-7.1746216 7.308197l0.25274658 -0.27703857q1.2816162 1.1685486 2.343567 1.6504822q1.0725098 0.47042847 2.0272827 0.3048401q0.95373535 -0.18765259 1.8277588 -1.145752q0.7687378 -0.84265137 1.057251 -1.7848511q0.29901123 -0.95376587 0.14990234 -2.9927673l2.7079468 -0.047180176zm-8.01593 -1.5996094q-0.7233887 -0.57492065 -1.6162109 -0.98724365q-0.8823242 -0.42388916 -1.5310669 -0.33874512q-0.64971924 0.063079834 -1.1973267 0.6633301q-0.86346436 0.9465637 -0.6143799 2.2731934q0.25958252 1.315094 1.2943115 2.4065552l3.6646729 -4.01709zm8.631165 -17.48288l3.2560425 2.9687347l-2.1166382 2.3202057q-1.2919312 -0.6704407 -1.8373413 -0.7448578q-0.5465088 -0.09651184 -0.91467285 0.07525635q-0.36920166 0.14970398 -0.7904663 0.61143494q-0.5791626 0.63487244 -0.6152954 1.5322876q-0.03717041 0.87535095 0.6157837 2.0838776q0.6635132 1.196991 2.1182861 2.5234528q0.9352417 0.85272217 1.8015747 1.4100037q0.86639404 0.557312 1.604065 0.7224426q0.74816895 0.15356445 1.4138794 -0.04296875q0.6541748 -0.20703125 1.2860107 -0.8996277q0.63183594 -0.69259644 0.90338135 -1.5234375q0.27044678 -0.8529053 0.109802246 -2.9024353l2.68042 0.07571411q0.17156982 1.8057404 0.09979248 2.6495056q-0.061279297 0.83221436 -0.31170654 1.6399841q-0.2619629 0.7972107 -0.65197754 1.4565735q-0.36791992 0.6583252 -0.9576416 1.3047485q-2.2009277 2.4125366 -4.9747314 2.2305298q-2.7738037 -0.18197632 -5.6834106 -2.8349q-1.8243408 -1.6633301 -2.6137085 -3.6728516q-0.7893677 -2.009552 -0.4055786 -4.006714q0.37219238 -2.0077057 1.8886108 -3.6699371q0.89508057 -0.9811859 1.7687378 -1.707016q0.8842163 -0.73739624 2.3267822 -1.6000061zm0.40142822 0.070007324q0.67230225 -1.0151672 0.73083496 -1.4270325q0.06896973 -0.42340088 -0.07122803 -0.8261261q-0.1296997 -0.41426086 -0.5313721 -0.9708252q-0.402771 -0.5786438 -1.699585 -2.078247l2.3272095 -2.5510712l2.8519287 2.6002808l3.4013672 -3.728485l2.1360474 1.9475708l-3.4013672 3.7284698l4.653137 4.2425537q1.0853271 0.98957825 1.7594604 1.456192q0.6625366 0.45610046 1.1081543 0.5240631q0.44458008 0.045898438 0.74957275 -0.056610107q0.3040161 -0.124572754 0.66204834 -0.51704407q0.32641602 -0.35784912 0.46069336 -0.80636597q0.14471436 -0.46006775 0.13946533 -1.7758179l2.3944702 0.11099243q0.07098389 2.2637634 -0.272583 3.4517975q-0.34454346 1.1659698 -1.1659546 2.0663452q-1.5690308 1.7199402 -3.3874512 1.6266785q-1.8184204 -0.09326172 -3.8736572 -1.9671326l-5.9231567 -5.4005585l-1.5585327 1.7084045l-1.489502 -1.3580322zm26.120667 -10.734589q0.15319824 2.1272888 0.015808105 3.228424q-0.13739014 1.1011353 -0.5974121 2.1618195q-0.47155762 1.0501556 -1.3561401 2.0197906q-2.3693848 2.5972443 -5.1832886 2.5055542q-2.8034058 -0.10322571 -5.7592163 -2.7982483q-1.8242798 -1.6633301 -2.6452637 -3.6382294q-0.82092285 -1.9749146 -0.45825195 -3.9489899q0.36169434 -1.9961548 1.8464966 -3.623764q1.1583862 -1.2697601 2.416504 -1.8142395q1.2580566 -0.54447937 2.4909668 -0.43533325q1.2328491 0.10916138 2.546814 0.77856445q1.3245239 0.65786743 3.49115 2.5487366l-7.1746216 7.308197l0.25268555 -0.27703857q1.2816772 1.1685486 2.343628 1.6504974q1.0725098 0.47039795 2.0272827 0.30482483q0.95373535 -0.18765259 1.8277588 -1.1457367q0.7687378 -0.8426666 1.057251 -1.7848816q0.29901123 -0.9537506 0.14984131 -2.9927368l2.7080078 -0.047210693zm-8.015991 -1.5995789q-0.72332764 -0.5749512 -1.6161499 -0.98727417q-0.8823242 -0.42385864 -1.5310669 -0.3387146q-0.64971924 0.063079834 -1.1973267 0.6633301q-0.8635254 0.94654846 -0.6144409 2.2731934q0.25964355 1.315094 1.2943726 2.4065247l3.6646118 -4.0170593zm5.5892944 -17.000092q-1.0968628 -1.0001068 -1.5220337 -1.3454742q-0.4262085 -0.3674469 -0.70977783 -0.52027893q-0.28356934 -0.15283203 -0.4276123 -0.15725708q-0.14501953 -0.026504517 -0.3511963 0.060394287q-0.19561768 0.0753479 -1.199707 0.8514252l-1.4663696 -1.3369751l2.8416138 -3.3930817l1.0740967 -1.177414l13.855408 12.632889q0.8775635 0.80007935 1.2334595 1.0822906q0.3548584 0.26013184 0.5345459 0.31822205q0.19018555 0.046539307 0.4194336 -0.019302368q0.2177124 -0.07637024 1.2669678 -0.8324127l1.454834 1.3264465l-2.7784424 3.323822l-1.1162109 1.223587l-1.8156738 -2.4378357l0.27441406 -0.045806885q0.33337402 1.2342987 0.2119751 2.2019958q-0.11090088 0.95614624 -0.46661377 1.8793335q-0.3567505 0.9011078 -1.072876 1.6860657q-1.9586792 2.147049 -4.60614 1.8265228q-2.6474 -0.32052612 -5.5108643 -2.9313202q-2.0090332 -1.8317719 -2.7773438 -3.8643951q-0.7798462 -2.0431519 -0.3479004 -3.954071q0.43200684 -1.9109192 1.8430786 -3.457718q0.7371216 -0.8080292 1.4864502 -1.3512115q0.73779297 -0.55371094 0.80303955 -0.5788269l-1.1305542 -1.009613zm5.7038574 5.200531q-0.8659668 -0.7895508 -1.4246216 -1.1508942q-0.54815674 -0.3728943 -0.97369385 -0.48602295q-0.41503906 -0.12466431 -0.8314209 -0.039154053q-0.41741943 0.063446045 -0.7941284 0.29089355q-0.3661499 0.21591187 -0.7979126 0.6891937q-1.1057129 1.2120361 -0.70043945 2.8079681q0.41583252 1.5843658 2.482605 3.4687805q2.0898438 1.9054565 3.555664 2.2693024q1.4648438 0.34176636 2.3809814 -0.6625061q0.41070557 -0.4501953 0.58361816 -0.77885437q0.18347168 -0.3401947 0.27557373 -0.7425537q0.080566406 -0.4128723 0.05517578 -0.9646454q-0.03692627 -0.5622864 -0.13946533 -0.867218q-0.103515625 -0.32699585 -0.34057617 -0.66996765q-0.23699951 -0.3429718 -0.74505615 -0.80618286l-2.5863037 -2.358139zm10.643738 -16.535965l-0.23028564 0.043762207q-0.4732666 -1.1504364 -0.42114258 -2.181305q0.06262207 -1.0424042 0.43945312 -1.9886627q0.36523438 -0.95680237 1.1760864 -1.8456421q0.642395 -0.7041321 1.6749878 -1.5810547l3.56781 3.2529602l-1.916565 2.100891q-1.1567993 -0.37806702 -1.5310669 -0.33872986q-0.36376953 0.027801514 -0.69018555 0.38563538q-0.26330566 0.28858948 -0.362854 0.768692q-0.099609375 0.4801178 -8.544922E-4 1.1833191q0.097717285 0.68115234 0.31567383 1.0913544q0.21801758 0.41020203 0.69140625 0.8418274l4.0411377 3.6845856q0.96990967 0.88430786 1.3322754 1.0666809q0.36132812 0.16030884 0.6347656 0.092437744q0.2723999 -0.08995056 1.2554321 -0.8429413l1.454834 1.3264618l-5.128418 5.621582l-1.4086304 -1.2843475q0.43249512 -0.93777466 0.47906494 -1.1279144q0.046569824 -0.19013977 0.01739502 -0.34362793q-0.02923584 -0.1534729 -0.2767334 -0.48490906q-0.25909424 -0.34194946 -1.0211792 -1.0367584l-5.0341187 -4.5899506q-0.727417 -0.66322327 -1.1410522 -0.99806213q-0.40307617 -0.34638977 -0.6268921 -0.40245056q-0.22381592 -0.056045532 -0.47314453 0.0549469q-0.25030518 0.08892822 -1.1796875 0.8062744l-1.4663696 -1.3369751l2.7573242 -3.3007355l1.12677 -1.2351227l1.9447632 2.5977783zm19.187744 -5.38385l0.28601074 -0.03527832q0.33666992 1.7870789 -0.074523926 3.1883392q-0.4227295 1.3907318 -1.4336548 2.498886q-0.90563965 0.99272156 -2.0142822 1.4197388q-1.1201782 0.41648865 -2.2487793 0.16983032q-1.1286011 -0.24664307 -2.0638428 -1.0993652q-1.9744263 -1.8001862 -1.3161011 -4.561981q0.66882324 -2.773346 3.269226 -5.8788605l-0.28863525 -0.2631836q-1.1199951 -1.0211487 -1.8762817 -1.3512878q-0.7458496 -0.3416748 -1.3137207 -0.18284607q-0.5689087 0.13677979 -1.2007446 0.8293762q-0.65289307 0.715683 -0.6730957 1.47966q-0.020141602 0.76397705 0.8186035 2.1630096l-2.1482544 2.354828l-2.2745972 -2.0738983q0.5467529 -2.0599518 0.96466064 -3.0744781q0.41693115 -1.0365753 0.9713745 -1.9689026q0.5428467 -0.94285583 1.2800293 -1.750885q1.1478271 -1.2582245 2.3226929 -1.6882782q1.1748657 -0.43006897 2.4209595 -0.033996582q1.2460938 0.3960724 2.8625488 1.8699036l4.0180664 3.6635437q0.8428955 0.76849365 1.1882324 1.0622406q0.3338623 0.28323364 0.6184082 0.45812988q0.2730713 0.16438293 0.41809082 0.19088745q0.14501953 0.026489258 0.3522339 -0.038330078q0.2177124 -0.07637024 1.1741943 -0.6843872l1.420227 1.2948761l-3.7805176 4.144043l-1.6785278 -2.1013336zm-3.7023315 -2.5721893q-1.5670776 1.7640839 -1.9541016 3.2084808q-0.38708496 1.4443817 0.52508545 2.2760468q0.5079956 0.46321106 0.9199829 0.5216522q0.42248535 0.046920776 0.78967285 -0.14691162q0.3671875 -0.19384766 0.7989502 -0.66711426q0.5897217 -0.64642334 0.76239014 -1.4616547q0.17163086 -0.8373108 -0.038513184 -1.5575104q-0.22167969 -0.73072815 -0.6604004 -1.1307831l-1.1430664 -1.0422058zm3.9604492 -19.944153q-1.0968628 -1.0001068 -1.5220947 -1.3454742q-0.42614746 -0.3674469 -0.7097168 -0.52027893q-0.28363037 -0.15283203 -0.4276123 -0.15725708q-0.14501953 -0.026504517 -0.3511963 0.060394287q-0.19561768 0.0753479 -1.199707 0.8514099l-1.4663696 -1.3369751l2.8415527 -3.3930664l1.0741577 -1.177414l13.855408 12.632889q0.87750244 0.80007935 1.2333984 1.0822906q0.35491943 0.26013184 0.5345459 0.31822205q0.19018555 0.046539307 0.41949463 -0.019302368q0.2177124 -0.07637024 1.2669678 -0.8324127l1.454834 1.3264465l-2.7784424 3.323822l-1.1162109 1.223587l-1.8157349 -2.4378357l0.2744751 -0.045806885q0.333313 1.2342987 0.21191406 2.2019958q-0.110839844 0.95614624 -0.46661377 1.8793182q-0.3567505 0.90112305 -1.072815 1.6860657q-1.9586792 2.147049 -4.60614 1.8265228q-2.647461 -0.32052612 -5.5108643 -2.9313202q-2.0090942 -1.8317719 -2.7773438 -3.8643951q-0.7798462 -2.0431519 -0.3479004 -3.954071q0.4319458 -1.9109192 1.8430786 -3.457718q0.7371216 -0.8080139 1.4864502 -1.3511963q0.73779297 -0.55371094 0.8029785 -0.5788269l-1.1304932 -1.009613zm5.7037964 5.200531q-0.8659668 -0.7895508 -1.4246216 -1.1508942q-0.5480957 -0.3728943 -0.9736328 -0.48602295q-0.41503906 -0.12466431 -0.83148193 -0.039154053q-0.41741943 0.063446045 -0.7940674 0.29089355q-0.36621094 0.2158966 -0.7979126 0.68917847q-1.1057129 1.2120361 -0.70043945 2.8079681q0.41583252 1.5843811 2.482605 3.4687805q2.0898438 1.9054565 3.555664 2.2693024q1.4648438 0.34176636 2.3809814 -0.6625061q0.41070557 -0.45018005 0.58361816 -0.7788391q0.18347168 -0.34020996 0.27557373 -0.7425537q0.080566406 -0.4128723 0.05517578 -0.9646454q-0.036987305 -0.5622864 -0.13946533 -0.867218q-0.10357666 -0.32699585 -0.34057617 -0.66996765q-0.23699951 -0.3429718 -0.74505615 -0.80618286l-2.5863647 -2.358139zm-0.45135498 -17.982803l3.2098389 2.9266052l-2.8222046 3.0936127l-3.2098389 -2.9266205l2.8222046 -3.0935974zm11.229187 18.061905q0.45355225 -0.9608612 0.50109863 -1.1289215q0.036071777 -0.17860413 0.0068359375 -0.33207703q-0.030151367 -0.17555237 -0.27770996 -0.5069885q-0.25909424 -0.34194946 -1.0211792 -1.0367584l-5.0341187 -4.5899506q-0.727417 -0.66322327 -1.1410522 -0.9980774q-0.40307617 -0.34638977 -0.6268921 -0.4024353q-0.22381592 -0.05606079 -0.47314453 0.0549469q-0.25030518 0.08892822 -1.1796875 0.8062744l-1.4779053 -1.3475037l2.7583618 -3.278656l1.0952148 -1.2005157l8.7404175 7.9692535q0.9352417 0.85272217 1.2650146 1.0476532q0.340271 0.18341064 0.59265137 0.13861084q0.26287842 -0.05632019 1.2615356 -0.71051025l1.4317017 1.3054047l-5.012512 5.4945984l-1.4086304 -1.2843475zm11.745483 -13.987869l0.2859497 -0.03527832q0.33666992 1.7870789 -0.074523926 3.1883392q-0.42266846 1.3907318 -1.4336548 2.498886q-0.9055786 0.99272156 -2.0142822 1.4197388q-1.1201782 0.4164734 -2.2487793 0.16983032q-1.12854 -0.24665833 -2.0637817 -1.0993805q-1.9744263 -1.8001862 -1.3161011 -4.561981q0.66882324 -2.7733307 3.269226 -5.878845l-0.28863525 -0.2631836q-1.1199951 -1.021164 -1.8763428 -1.3512878q-0.7457886 -0.34169006 -1.3137207 -0.18284607q-0.5689087 0.13676453 -1.2007446 0.82936096q-0.65289307 0.715683 -0.67303467 1.47966q-0.020141602 0.76397705 0.8185425 2.163025l-2.1482544 2.354828l-2.2745972 -2.0738983q0.54681396 -2.059967 0.9647217 -3.0744781q0.41687012 -1.0365906 0.9713135 -1.9689178q0.5429077 -0.94285583 1.2800293 -1.750885q1.1478271 -1.2582092 2.322754 -1.6882782q1.1748657 -0.4300537 2.4209595 -0.033981323q1.2460327 0.39605713 2.8625488 1.8699036l4.0180664 3.6635284q0.8428345 0.7685089 1.1882324 1.0622559q0.33380127 0.28321838 0.6184082 0.45812988q0.2730713 0.16436768 0.41809082 0.19087219q0.14501953 0.026504517 0.35217285 -0.038330078q0.2177124 -0.07637024 1.1742554 -0.68437195l1.420166 1.2948761l-3.7804565 4.1440277l-1.6785278 -2.1013184zm-3.7023926 -2.5721893q-1.5670166 1.7640839 -1.9541016 3.2084656q-0.38702393 1.444397 0.52508545 2.276062q0.50805664 0.4631958 0.92004395 0.5216522q0.42248535 0.046905518 0.78967285 -0.14692688q0.3671875 -0.1938324 0.7989502 -0.66711426q0.5897217 -0.64642334 0.7623291 -1.4616547q0.1716919 -0.83729553 -0.03845215 -1.5574951q-0.22167969 -0.7307434 -0.6604614 -1.1307831l-1.1430664 -1.0422058zm-2.1052856 -9.93338q0.67230225 -1.0151672 0.7307739 -1.4270325q0.06903076 -0.42340088 -0.07116699 -0.8261261q-0.1296997 -0.41426086 -0.5314331 -0.9708252q-0.40270996 -0.5786438 -1.699585 -2.078247l2.3272705 -2.551056l2.8519287 2.6002655l3.4013672 -3.728485l2.1360474 1.9475708l-3.4013672 3.728485l4.653076 4.2425385q1.0853882 0.98957825 1.7594604 1.456192q0.66259766 0.45610046 1.1081543 0.5240631q0.44458008 0.045898438 0.7496338 -0.056610107q0.30395508 -0.124572754 0.66204834 -0.51704407q0.32641602 -0.35784912 0.46063232 -0.80636597q0.14477539 -0.46006775 0.13952637 -1.7758179l2.3944702 0.11099243q0.07098389 2.2637634 -0.272583 3.4517975q-0.34454346 1.1659698 -1.1659546 2.0663452q-1.5690308 1.7199554 -3.3874512 1.6266785q-1.8184204 -0.09326172 -3.8736572 -1.9671326l-5.923218 -5.4005585l-1.5585327 1.7084045l-1.4894409 -1.3580322zm6.653137 -17.679398l3.2098389 2.9266205l-2.8222046 3.0935974l-3.2098389 -2.9266052l2.8222046 -3.0936127zm11.229187 18.06192q0.45361328 -0.9608612 0.50115967 -1.1289368q0.036010742 -0.17858887 0.0068359375 -0.33207703q-0.030212402 -0.17553711 -0.277771 -0.50697327q-0.25909424 -0.34194946 -1.0211182 -1.0367584l-5.0341187 -4.5899506q-0.727417 -0.66322327 -1.1410522 -0.9980774q-0.40307617 -0.34638977 -0.6268921 -0.4024353q-0.22381592 -0.05606079 -0.47314453 0.0549469q-0.2503662 0.08892822 -1.1796875 0.8062744l-1.4779053 -1.3475037l2.7583618 -3.2786713l1.0951538 -1.2005005l8.7404785 7.9692535q0.9352417 0.85272217 1.2650146 1.0476532q0.340271 0.18339539 0.59265137 0.13861084q0.26287842 -0.05633545 1.2615356 -0.71051025l1.4317017 1.3053894l-5.0125732 5.4946136l-1.4086304 -1.2843475zm12.608398 -10.6214905q-2.390442 2.6203156 -5.2233887 2.5958557q-2.8444824 -0.034988403 -5.800293 -2.7299957q-2.02063 -1.8423004 -2.7994385 -3.863388q-0.76831055 -2.0326233 -0.31427002 -3.9445496q0.45306396 -1.9340057 1.9168091 -3.5385284q2.4536133 -2.6895905 5.321167 -2.633545q2.8665771 0.033981323 5.741577 2.655304q2.0321655 1.852829 2.8320312 3.8508148q0.7998657 1.9980011 0.3479004 3.954071q-0.45306396 1.9340057 -2.0220947 3.6539612zm-8.391296 -3.506546q2.2399292 2.042328 3.9381104 2.4065247q1.6970825 0.34214783 2.729126 -0.7891083q0.5686035 -0.6233368 0.65808105 -1.3241425q0.09991455 -0.71235657 -0.17944336 -1.4957275q-0.28045654 -0.80545044 -0.92767334 -1.649292q-0.65875244 -0.8543854 -1.5247192 -1.6439514q-1.6165161 -1.4738312 -2.9484863 -2.0539398q-1.3214111 -0.59165955 -2.2330322 -0.45018005q-0.90112305 0.12992859 -1.5013428 0.78790283q-1.0319824 1.1312408 -0.5720215 2.7135925q0.45996094 1.5823364 2.5614014 3.4983215zm25.771545 -15.916107l-5.0336304 5.5177l-1.4086304 -1.2843475q0.45355225 -0.9608612 0.5001221 -1.151001q0.046569824 -0.19013977 0.01739502 -0.34362793q-0.029174805 -0.1534729 -0.28826904 -0.49542236q-0.25909424 -0.34196472 -0.9980469 -1.0157166l-3.0251465 -2.7581787q-0.7966919 -0.72639465 -1.4622803 -1.2486954q-0.6656494 -0.52230835 -1.1077881 -0.75631714q-0.45373535 -0.24452972 -0.7207031 -0.27648163q-0.26794434 -0.054016113 -0.5203247 -0.009231567q-0.26391602 0.03426361 -0.5227051 0.17887878q-0.24829102 0.1330719 -0.5852661 0.50245667q-0.31591797 0.34629822 -0.46069336 0.80636597q-0.15631104 0.44953918 -0.16491699 1.2240448q0.001953125 0.76296234 0.17883301 1.2414093q0.17687988 0.47844696 0.6156006 0.87848663l4.3067627 3.9267197q0.9352417 0.85272217 1.2649536 1.0476685q0.34033203 0.18339539 0.59265137 0.13861084q0.26293945 -0.05633545 1.2615356 -0.7105255l1.4317627 1.3054047l-5.0125732 5.4945984l-1.4086304 -1.2843323q0.45355225 -0.96087646 0.50115967 -1.1289368q0.036010742 -0.17860413 0.0068359375 -0.33207703q-0.030212402 -0.17555237 -0.277771 -0.50697327q-0.25909424 -0.34196472 -1.0211182 -1.0367737l-5.0341797 -4.5899506q-0.72735596 -0.66322327 -1.1409912 -0.99806213q-0.4031372 -0.34638977 -0.6269531 -0.40245056q-0.22381592 -0.05605316 -0.4730835 0.0549469q-0.2503662 0.08892822 -1.1797485 0.8062744l-1.4779053 -1.3475037l2.768921 -3.290207l1.12677 -1.2351303l1.8262329 2.4262924l-0.25238037 0.044792175q-0.34350586 -1.4550018 -0.22003174 -2.3785553q0.11187744 -0.93408203 0.42852783 -1.7448807q0.32720947 -0.8223419 0.9590454 -1.5149384q0.63183594 -0.69259644 1.3209839 -1.1003113q0.6881714 -0.42977905 1.4568481 -0.5536194q0.7686157 -0.1238327 1.5524292 0.08338165q0.78289795 0.18515778 1.579956 0.6792984q0.80755615 0.48259735 1.8120728 1.3984756l4.3529053 3.968834q0.76208496 0.69480896 1.0938721 0.9338913q0.3307495 0.2170105 0.4873047 0.25404358q0.15661621 0.03703308 0.36376953 -0.027801514q0.20721436 -0.064826965 1.1963501 -0.6853943l1.420166 1.2948685z" fill-rule="nonzero"/><path fill="#000000" fill-opacity="0.0" d="m464.99344 401.49344l0 -328.8819" fill-rule="evenodd"/><path stroke="#666666" stroke-width="2.0" stroke-linejoin="round" stroke-linecap="butt" stroke-dasharray="8.0,6.0" d="m464.99344 401.49344l0 -316.8819" fill-rule="evenodd"/><path fill="#666666" stroke="#666666" stroke-width="2.0" stroke-linecap="butt" d="m468.2969 84.61155l-3.3034668 -9.076195l-3.3034668 9.076195z" fill-rule="evenodd"/><path fill="#000000" fill-opacity="0.0" d="m427.35828 413.9029l0 -432.97638l60.850372 0l0 432.97638z" fill-rule="evenodd"/><path fill="#000000" d="m454.27826 242.89697l0 4.328125l-1.109375 0q-0.171875 -0.578125 -0.21875 -0.671875q-0.0625 -0.109375 -0.140625 -0.15625q-0.078125 -0.0625 -0.3125 -0.109375q-0.25 -0.046875 -0.828125 -0.046875l-2.390625 0q-0.625 0 -1.109375 0.03125q-0.5 0.03125 -0.78125 0.109375q-0.296875 0.0625 -0.421875 0.15625q-0.140625 0.09375 -0.234375 0.21875q-0.109375 0.125 -0.15625 0.28125q-0.0625 0.15625 -0.0625 0.453125q0 0.265625 0.109375 0.53125q0.109375 0.25 0.421875 0.59375q0.3125 0.328125 0.578125 0.46875q0.265625 0.125 0.609375 0.125l3.390625 0q0.734375 0 0.96875 -0.046875q0.21875 -0.0625 0.3125 -0.171875q0.09375 -0.125 0.25 -0.796875l1.125 0l0 4.3125l-1.109375 0q-0.171875 -0.578125 -0.21875 -0.671875q-0.0625 -0.109375 -0.140625 -0.15625q-0.078125 -0.046875 -0.3125 -0.09375q-0.234375 -0.0625 -0.84375 -0.0625l-3.96875 0q-0.578125 0 -0.875 0.03125q-0.3125 0.015625 -0.4375 0.078125q-0.125 0.0625 -0.1875 0.203125q-0.078125 0.125 -0.171875 0.8125l-1.171875 0l-0.109375 -2.5l0 -0.96875l1.734375 0.296875l-0.078125 0.140625q-0.71875 -0.484375 -1.03125 -0.9375q-0.3125 -0.453125 -0.5 -0.9375q-0.1875 -0.484375 -0.1875 -1.015625q0 -0.546875 0.140625 -0.984375q0.125 -0.453125 0.40625 -0.8125q0.28125 -0.359375 0.703125 -0.578125q0.40625 -0.21875 0.953125 -0.328125q0.53125 -0.109375 1.3125 -0.109375l3.4375 0q0.609375 0 0.84375 -0.015625q0.234375 -0.03125 0.3125 -0.078125q0.078125 -0.046875 0.15625 -0.15625q0.0625 -0.125 0.21875 -0.765625l1.125 0zm0.140625 -5.130905q0 2.0625 -1.234375 3.171875q-1.234375 1.09375 -3.546875 1.09375q-1.609375 0 -2.734375 -0.5625q-1.125 -0.578125 -1.671875 -1.578125q-0.5625 -1.015625 -0.5625 -2.265625q0 -2.125 1.25 -3.234375q1.25 -1.109375 3.515625 -1.109375q1.609375 0 2.734375 0.5625q1.109375 0.546875 1.6875 1.5625q0.5625 1.0 0.5625 2.359375zm-4.984375 1.796875q1.765625 0 2.640625 -0.515625q0.875 -0.53125 0.875 -1.421875q0 -0.5 -0.234375 -0.84375q-0.234375 -0.34375 -0.671875 -0.5625q-0.4375 -0.234375 -1.046875 -0.34375q-0.609375 -0.109375 -1.296875 -0.109375q-1.28125 0 -2.078125 0.28125q-0.8125 0.265625 -1.140625 0.6875q-0.34375 0.40625 -0.34375 0.921875q0 0.890625 0.828125 1.40625q0.8125 0.5 2.46875 0.5zm-2.84375 -10.355148l-0.078125 0.109375q-0.65625 -0.3125 -1.03125 -0.78125q-0.390625 -0.46875 -0.59375 -1.03125q-0.21875 -0.5625 -0.21875 -1.25q0 -0.546875 0.09375 -1.328125l2.796875 0l0 1.640625q-0.640625 0.296875 -0.78125 0.453125q-0.15625 0.15625 -0.15625 0.453125q0 0.21875 0.15625 0.46875q0.140625 0.25 0.453125 0.515625q0.3125 0.265625 0.578125 0.359375q0.25 0.078125 0.625 0.078125l3.1875 0q0.765625 0 1.0 -0.0625q0.21875 -0.078125 0.3125 -0.21875q0.078125 -0.140625 0.203125 -0.84375l1.140625 0l0 4.421875l-1.109375 0q-0.171875 -0.578125 -0.21875 -0.671875q-0.0625 -0.109375 -0.140625 -0.15625q-0.078125 -0.0625 -0.3125 -0.109375q-0.234375 -0.046875 -0.84375 -0.046875l-3.96875 0q-0.578125 0 -0.875 0.03125q-0.3125 0.015625 -0.4375 0.078125q-0.125 0.0625 -0.1875 0.203125q-0.078125 0.125 -0.171875 0.8125l-1.171875 0l-0.109375 -2.5l0 -0.953125l1.859375 0.328125zm-0.125 -7.762619l-0.078125 0.140625q-0.578125 -0.359375 -0.875 -0.734375q-0.296875 -0.375 -0.484375 -0.734375q-0.1875 -0.359375 -0.265625 -0.6875q-0.09375 -0.34375 -0.09375 -0.6875q0 -1.03125 0.5 -1.703125q0.5 -0.6875 0.84375 -0.78125q-0.234375 -0.21875 -0.578125 -0.671875q-0.359375 -0.46875 -0.5625 -0.953125q-0.203125 -0.5 -0.203125 -1.09375q0 -0.6875 0.21875 -1.203125q0.203125 -0.515625 0.640625 -0.875q0.4375 -0.375 1.0625 -0.53125q0.609375 -0.15625 1.59375 -0.15625l3.4375 0q0.671875 0 0.890625 -0.03125q0.203125 -0.03125 0.28125 -0.0625q0.0625 -0.046875 0.140625 -0.15625q0.0625 -0.125 0.234375 -0.765625l1.109375 0l0 4.328125l-1.109375 0q-0.171875 -0.59375 -0.21875 -0.6875q-0.0625 -0.09375 -0.140625 -0.140625q-0.078125 -0.0625 -0.3125 -0.109375q-0.25 -0.046875 -0.828125 -0.046875l-2.390625 0q-0.765625 0 -1.234375 0.046875q-0.484375 0.03125 -0.734375 0.109375q-0.25 0.0625 -0.375 0.15625q-0.125 0.09375 -0.21875 0.203125q-0.09375 0.109375 -0.140625 0.25q-0.0625 0.140625 -0.0625 0.4375q0 0.28125 0.125 0.53125q0.109375 0.234375 0.40625 0.5625q0.296875 0.3125 0.578125 0.453125q0.28125 0.125 0.671875 0.125l3.328125 0q0.671875 0 0.890625 -0.03125q0.203125 -0.046875 0.28125 -0.09375q0.078125 -0.046875 0.140625 -0.140625q0.0625 -0.109375 0.234375 -0.75l1.109375 0l0 4.328125l-1.109375 0q-0.171875 -0.59375 -0.21875 -0.6875q-0.0625 -0.09375 -0.140625 -0.140625q-0.078125 -0.0625 -0.3125 -0.109375q-0.25 -0.046875 -0.828125 -0.046875l-2.390625 0q-0.796875 0 -1.265625 0.046875q-0.484375 0.03125 -0.734375 0.109375q-0.265625 0.078125 -0.40625 0.1875q-0.140625 0.109375 -0.203125 0.21875q-0.078125 0.109375 -0.109375 0.265625q-0.046875 0.15625 -0.046875 0.359375q0 0.28125 0.140625 0.546875q0.140625 0.265625 0.421875 0.5625q0.28125 0.296875 0.5625 0.4375q0.265625 0.140625 0.578125 0.140625l3.40625 0q0.5 0 0.734375 -0.015625q0.234375 -0.03125 0.34375 -0.0625q0.09375 -0.046875 0.15625 -0.09375q0.046875 -0.046875 0.109375 -0.15625q0.046875 -0.109375 0.1875 -0.703125l1.125 0l0 4.328125l-1.109375 0q-0.171875 -0.578125 -0.21875 -0.671875q-0.0625 -0.109375 -0.140625 -0.15625q-0.078125 -0.0625 -0.3125 -0.109375q-0.234375 -0.046875 -0.84375 -0.046875l-3.96875 0q-0.578125 0 -0.875 0.03125q-0.3125 0.015625 -0.4375 0.078125q-0.125 0.0625 -0.1875 0.203125q-0.078125 0.125 -0.171875 0.8125l-1.171875 0l-0.109375 -2.5l0 -0.96875l1.734375 0.296875zm6.28125 -17.944458l0.078125 -0.109375q0.859375 0.640625 1.234375 1.40625q0.359375 0.765625 0.359375 1.625q0 0.796875 -0.3125 1.40625q-0.3125 0.609375 -0.890625 0.953125q-0.578125 0.328125 -1.3125 0.328125q-1.546875 0 -2.34375 -1.4375q-0.8125 -1.453125 -0.921875 -3.828125l-0.234375 0q-0.875 0 -1.328125 0.15625q-0.453125 0.15625 -0.640625 0.453125q-0.203125 0.28125 -0.203125 0.828125q0 0.5625 0.296875 0.90625q0.296875 0.34375 1.203125 0.609375l0 1.84375l-1.796875 0q-0.5625 -1.09375 -0.78125 -1.703125q-0.234375 -0.609375 -0.359375 -1.21875q-0.125 -0.625 -0.125 -1.265625q0 -0.984375 0.328125 -1.625q0.328125 -0.640625 1.03125 -0.953125q0.6875 -0.328125 1.96875 -0.328125l3.171875 0q0.671875 0 0.921875 0q0.25 -0.015625 0.453125 -0.046875q0.1875 -0.046875 0.265625 -0.09375q0.0625 -0.046875 0.125 -0.15625q0.0625 -0.125 0.234375 -0.75l1.109375 0l0 3.25l-1.53125 -0.25zm-2.625 0.34375q0.015625 1.390625 0.421875 2.171875q0.40625 0.765625 1.125 0.765625q0.40625 0 0.609375 -0.125q0.203125 -0.140625 0.28125 -0.375q0.078125 -0.234375 0.078125 -0.609375q0 -0.515625 -0.25 -0.9375q-0.25 -0.421875 -0.625 -0.65625q-0.375 -0.234375 -0.734375 -0.234375l-0.90625 0zm1.5 -7.171997q0.734375 0 0.953125 -0.046875q0.21875 -0.0625 0.328125 -0.1875q0.09375 -0.125 0.25 -0.796875l1.125 0l0 4.375l-1.125 0q-0.15625 -0.671875 -0.234375 -0.78125q-0.078125 -0.109375 -0.171875 -0.15625q-0.109375 -0.046875 -0.375 -0.0625q-0.265625 -0.03125 -0.75 -0.03125l-7.625 0q-0.859375 0 -1.1875 0.015625q-0.328125 0.015625 -0.5 0.0625q-0.1875 0.03125 -0.25 0.09375q-0.078125 0.046875 -0.125 0.171875q-0.0625 0.109375 -0.1875 0.828125l-1.140625 0l-0.109375 -2.546875l0 -0.9375l11.125 0zm-6.796875 -9.751389l1.109375 0q0.171875 0.671875 0.21875 0.78125q0.046875 0.09375 0.109375 0.125q0.046875 0.03125 0.203125 0.03125q0.203125 0 0.4375 -0.046875q0.234375 -0.046875 0.578125 -0.1875l3.6875 -1.25l-3.515625 -1.484375q-0.421875 -0.171875 -0.65625 -0.234375q-0.25 -0.0625 -0.453125 -0.0625q-0.234375 0 -0.328125 0.109375q-0.109375 0.109375 -0.28125 0.84375l-1.109375 0l0 -4.15625l1.109375 0q0.125 0.5625 0.234375 0.703125q0.09375 0.125 0.390625 0.296875q0.28125 0.171875 0.84375 0.421875l6.96875 3.171875l0 1.578125l-7.0625 2.5625q-0.671875 0.234375 -0.875 0.359375q-0.203125 0.125 -0.28125 0.234375q-0.09375 0.109375 -0.21875 0.671875l-1.109375 0l0 -4.46875zm7.53125 -13.442673q0.890625 0.84375 1.265625 1.375q0.375 0.515625 0.59375 1.15625q0.203125 0.640625 0.203125 1.40625q0 2.046875 -1.234375 3.109375q-1.25 1.046875 -3.578125 1.046875q-1.4375 0 -2.5625 -0.515625q-1.140625 -0.53125 -1.75 -1.515625q-0.625 -1.0 -0.625 -2.296875q0 -1.0 0.328125 -1.71875q0.328125 -0.71875 0.90625 -1.15625q0.5625 -0.453125 1.390625 -0.671875q0.8125 -0.234375 2.5 -0.28125l-0.21875 5.96875l0 -0.21875q1.015625 0 1.671875 -0.203125q0.640625 -0.21875 0.984375 -0.671875q0.34375 -0.453125 0.34375 -1.21875q0 -0.671875 -0.25 -1.1875q-0.25 -0.53125 -1.109375 -1.34375l1.140625 -1.0625zm-4.078125 2.4375q-0.546875 0.03125 -1.09375 0.203125q-0.546875 0.171875 -0.796875 0.46875q-0.25 0.28125 -0.25 0.75q0 0.75 0.640625 1.234375q0.625 0.46875 1.5 0.515625l0 -3.171875zm-3.15625 -10.912888l2.5625 0l0 1.828125q-0.8125 0.203125 -1.078125 0.390625q-0.28125 0.171875 -0.375 0.390625q-0.09375 0.21875 -0.09375 0.578125q0 0.5 0.328125 0.90625q0.328125 0.390625 1.09375 0.65625q0.765625 0.265625 1.90625 0.265625q0.75 0 1.34375 -0.09375q0.59375 -0.109375 0.96875 -0.328125q0.375 -0.234375 0.59375 -0.578125q0.203125 -0.359375 0.203125 -0.890625q0 -0.5625 -0.21875 -1.03125q-0.21875 -0.46875 -1.0625 -1.28125l1.140625 -1.015625q0.796875 0.71875 1.09375 1.109375q0.296875 0.390625 0.5 0.828125q0.203125 0.4375 0.296875 0.875q0.09375 0.421875 0.09375 0.9375q0 1.90625 -1.265625 2.921875q-1.265625 1.0 -3.546875 1.0q-1.4375 0 -2.5625 -0.5625q-1.140625 -0.5625 -1.75 -1.5625q-0.625 -1.0 -0.625 -2.3125q0 -0.78125 0.09375 -1.4375q0.078125 -0.65625 0.359375 -1.59375zm0.21875 -0.14775085q-0.125 -0.6875 -0.25 -0.890625q-0.140625 -0.21875 -0.359375 -0.328125q-0.21875 -0.125 -0.609375 -0.203125q-0.40625 -0.09375 -1.546875 -0.234375l0 -2.0l2.25 0l0 -2.9375l1.671875 0l0 2.9375l3.671875 0q0.859375 0 1.328125 -0.0625q0.46875 -0.0625 0.6875 -0.203125q0.203125 -0.15625 0.296875 -0.328125q0.09375 -0.1875 0.09375 -0.484375q0 -0.296875 -0.109375 -0.546875q-0.125 -0.25 -0.65625 -0.78125l1.078125 -0.92185974q0.90625 0.95310974 1.21875 1.5937347q0.3125 0.640625 0.3125 1.34375q0 1.359375 -0.8125 2.03125q-0.8125 0.671875 -2.4375 0.671875l-4.671875 0l0 1.34375l-1.15625 0zm9.078125 -11.023819q0 2.0625 -1.234375 3.171875q-1.234375 1.09375 -3.546875 1.09375q-1.609375 0 -2.734375 -0.5625q-1.125 -0.578125 -1.671875 -1.578125q-0.5625 -1.015625 -0.5625 -2.265625q0 -2.125 1.25 -3.234375q1.25 -1.109375 3.515625 -1.109375q1.609375 0 2.734375 0.5625q1.109375 0.546875 1.6875 1.5625q0.5625 1.0 0.5625 2.359375zm-4.984375 1.796875q1.765625 0 2.640625 -0.515625q0.875 -0.53125 0.875 -1.421875q0 -0.5 -0.234375 -0.84375q-0.234375 -0.34375 -0.671875 -0.5625q-0.4375 -0.234375 -1.046875 -0.34375q-0.609375 -0.109375 -1.296875 -0.109375q-1.28125 0 -2.078125 0.28125q-0.8125 0.265625 -1.140625 0.6875q-0.34375 0.40625 -0.34375 0.921875q0 0.890625 0.828125 1.40625q0.8125 0.5 2.46875 0.5zm-2.84375 -10.355133l-0.078125 0.109375q-0.65625 -0.3125 -1.03125 -0.78125q-0.390625 -0.46875 -0.59375 -1.03125q-0.21875 -0.5625 -0.21875 -1.25q0 -0.546875 0.09375 -1.328125l2.796875 0l0 1.640625q-0.640625 0.296875 -0.78125 0.453125q-0.15625 0.15625 -0.15625 0.453125q0 0.21875 0.15625 0.46875q0.140625 0.25 0.453125 0.515625q0.3125 0.265625 0.578125 0.359375q0.25 0.078125 0.625 0.078125l3.1875 0q0.765625 0 1.0 -0.0625q0.21875 -0.078125 0.3125 -0.21875q0.078125 -0.140625 0.203125 -0.84375l1.140625 0l0 4.421875l-1.109375 0q-0.171875 -0.578125 -0.21875 -0.671875q-0.0625 -0.109375 -0.140625 -0.15625q-0.078125 -0.0625 -0.3125 -0.109375q-0.234375 -0.046875 -0.84375 -0.046875l-3.96875 0q-0.578125 0 -0.875 0.03125q-0.3125 0.015625 -0.4375 0.078125q-0.125 0.0625 -0.1875 0.203125q-0.078125 0.125 -0.171875 0.8125l-1.171875 0l-0.109375 -2.5l0 -0.953125l1.859375 0.328125z" fill-rule="nonzero"/></g></svg>